<?xml version="1.0" encoding="UTF-8"?><svg xmlns="http://www.w3.org/2000/svg" viewBox="0 0 85 85"><defs><style>.d{fill:#fff;}.e{fill:#3a5a99;}</style></defs><g id="a"/><g id="b"><g id="c"><g><circle class="e" cx="42.5" cy="42.5" r="42.5"/><path class="d" d="M63.18,19.26H21.82c-1.41,0-2.56,1.15-2.56,2.56V63.18c0,1.41,1.15,2.56,2.56,2.56h22.27v-18h-6.09v-7h6.06v-5.19c0-6,3.66-9.27,9-9.27,1.81,0,3.61,.09,5.41,.28v6.27h-3.71c-2.92,0-3.48,1.39-3.48,3.42v4.48h6.95l-.91,7h-6v18h11.85c1.41,0,2.56-1.15,2.56-2.56V21.82c0-1.41-1.14-2.55-2.55-2.56Z"/></g></g></g></svg>