<?xml version="1.0" encoding="UTF-8"?><svg xmlns="http://www.w3.org/2000/svg" viewBox="0 0 85 85"><defs><style>.d{fill:#fff;}.e{fill:#d50060;}</style></defs><g id="a"/><g id="b"><g id="c"><g><circle class="e" cx="42.5" cy="42.5" r="42.5"/><path class="d" d="M42.5,23c6.35,0,7.11,0,9.62,.14,1.51,.01,3.01,.29,4.42,.82,2.07,.8,3.71,2.44,4.51,4.51,.53,1.41,.81,2.91,.82,4.42,.12,2.51,.14,3.27,.14,9.62s0,7.11-.14,9.62c-.01,1.51-.29,3.01-.82,4.42-.8,2.07-2.44,3.71-4.51,4.51-1.41,.53-2.91,.81-4.42,.82-2.51,.12-3.26,.14-9.62,.14s-7.11,0-9.62-.14c-1.51-.01-3.01-.29-4.42-.82-2.05-.82-3.67-2.46-4.46-4.52-.53-1.41-.81-2.91-.82-4.42-.12-2.51-.14-3.27-.14-9.62s0-7.11,.14-9.62c.01-1.51,.29-3.01,.82-4.42,.8-2.04,2.42-3.66,4.46-4.46,1.41-.53,2.91-.81,4.42-.82,2.51-.12,3.27-.14,9.62-.14m0-4.29c-6.46,0-7.27,0-9.81,.14-1.98,.04-3.93,.42-5.78,1.11-3.22,1.23-5.77,3.78-7,7-.69,1.85-1.07,3.8-1.11,5.78-.11,2.54-.14,3.35-.14,9.81s0,7.27,.14,9.81c.08,1.95,.49,3.87,1.2,5.69,1.23,3.22,3.78,5.77,7,7,1.85,.69,3.8,1.07,5.78,1.11,2.54,.11,3.35,.14,9.81,.14s7.27,0,9.81-.14c1.98-.04,3.93-.42,5.78-1.11,3.22-1.23,5.77-3.78,7-7,.69-1.85,1.07-3.8,1.11-5.78,.11-2.54,.14-3.35,.14-9.81s0-7.27-.14-9.81c-.04-1.98-.42-3.93-1.11-5.78-1.23-3.22-3.78-5.77-7-7-1.85-.69-3.8-1.07-5.78-1.11-2.54-.11-3.35-.14-9.81-.14l-.09,.09Z"/><path class="d" d="M42.5,30.28c-6.75,0-12.22,5.47-12.22,12.22s5.47,12.22,12.22,12.22,12.22-5.47,12.22-12.22-5.47-12.22-12.22-12.22h0Zm0,20.15c-4.38,0-7.93-3.55-7.93-7.93s3.55-7.93,7.93-7.93,7.93,3.55,7.93,7.93h0c0,4.38-3.55,7.93-7.93,7.93Z"/><circle class="d" cx="55.2" cy="29.8" r="2.86"/></g></g></g></svg>