<?xml version="1.0" encoding="UTF-8"?><svg id="a" xmlns="http://www.w3.org/2000/svg" viewBox="0 0 699.33 666"><defs><style>.b{fill:#eefcfc;}.c{fill:#fff;}.d{fill:#191919;}.e{fill:#353535;}.f{fill:#7aeded;}</style></defs><path class="b" d="M501.73,146.69c-.57-1.14-36.58-69.74-54.8-104.46-5.23,17.65-26.18,88.47-46.5,156.98l45.4,24.58,11.18,.91c5.03-.5,10.05-1,15.06-1.48h.64l79.1,6.43V114.39c-24.01,14.86-48.66,28.87-50.09,32.3Z"/><path class="b" d="M307.96,182.34c4.57,.5,9.36,1,14.22,1.5l-7.93-14.08-6.29,12.58Z"/><path class="b" d="M46.73,220.36c2-1.14,4.07-2.36,6.22-3.43-.93-.86-1.79-1.64-2.64-2.36l-3.57,5.79Z"/><path class="b" d="M149.19,189.28c13.5-2.43,26.08-4.36,35.15-5.29,19.01-1.93,50.16-3.57,74.74-3.93-24.01-47.09-45.87-90.17-49.59-97.53l-60.3,106.75Z"/><path class="b" d="M400.46,480.49c-5.67,20.02-16.81,37.29-31.53,49.35-.1,.14-.22,.24-.37,.31-6.71,5.43-14.15,9.78-22.15,12.83-.01,0-.03,0-.04,.02-6.74,2.56-13.87,4.19-21.3,4.76,0,0-.02,0-.03,0-.01,0-.02,0-.03,0-.26,.02-.51,.04-.77,.06-6.74,.44-13.41,0-19.95-1.3h-.05c-5.74,0-11.45-.85-17.03-2.54-.12-.03-.23-.06-.34-.11-13.2-4.07-25.07-12.7-34.63-24.38-7.26,15.11-22.88,26.09-41.59,27.33-27.08,1.79-50.37-17.43-52.02-42.87v-.21c-.57-8.22-7.5-14.58-15.79-13.86l-61.31,5.22c8.79,9.29,18.36,18.01,28.58,25.94l170.7,132.54,170.7-132.54c19.29-15,36.23-32.44,50.3-51.8l-101.34,11.27Z"/><path class="e" d="M9.79,276.87c6.79-18.43,15.22-37.66,22.87-45.94,3.36-3.57,8.29-7.15,14.08-10.58l3.57-5.79c.86,.71,1.71,1.5,2.64,2.36,12.5-6.5,26.79-11.93,35.01-14.22,15.43-4.29,39.51-9.5,61.23-13.43l60.3-106.75c3.72,7.36,25.58,50.44,49.59,97.53,8.86-.14,16.86-.07,23.15,.21,6.36,.29,15.43,1.07,25.72,2.07h0l6.29-12.58,7.93,14.08c32.22,3.57,68.81,8.36,71.09,8.65,.43,.07,.86,.21,1.29,.43l2.93,1.57c1.5,.82,2.2,2.48,1.83,4.12l1.11,.6c20.32-68.51,41.27-139.33,46.5-156.98,18.22,34.73,54.23,103.32,54.8,104.46,1.43-3.43,26.08-17.43,50.09-32.3V9.79H9.79V276.87Z"/><path class="f" d="M676.5,304.46l-1.36,15.5c1.71-.71,4.72-1.43,9.86-1.29,1.07,.07,2.72,.43,4.29,.79-.5-3.36-1.14-6.14-1.93-8-.36-.71-2.29-2.57-3.5-3.29-1.36-.86-4.93-2.57-7.36-3.72Z"/><path class="f" d="M472.44,230.57c-27.94,2.64-56.02,5.64-84.03,9.07-10.86,1.29-21.72,2.72-32.51,4.14-.3,.04-.6,.08-.9,.12,5.32,.87,9.87,1.96,13.62,3.27,9.05,3.16,10.06,6.53,10.14,6.91,.11,.5-.2,1.01-.7,1.13l-.15,.02c-.45,.03-.85-.26-.96-.71-.03-.09-2.42-6.55-28.89-9.68-11.39,1.54-22.77,3.11-34.05,4.8-14.36,2.14-28.8,4.36-43.23,6.79-10.43,1.64-20.93,3.36-31.29,5.14-1.07,.21-2.14,.36-3.21,.57-1.79,.36-3.57-.79-4.14-2.57-.02-.05-.03-.11-.05-.16l-13.93,1.21c-4.84,15.69-8.21,31.86-10.02,48.08-3.02,27.11-1.75,54.47,3.74,81.54,0-3.87,.07-7.45,.17-10.26,.36-8.65,2.14-23.79,5.72-38.01,2.14-8.57,4.93-16.86,8.36-23.15,1.36-2.43,2.79-4.57,4.36-6.36,4.43-5.14,10.86-8.5,17.65-10.86h.07c8-2.86,16.43-4.14,22.65-5.14l2.93-.43c1.93-.36,4.07-.79,6.43-1.21,13.93-2.79,32.94-6.64,48.37,2.93,2.5,1.5,5.07,3.86,7.57,6.79,.29,.29,.5,.57,.71,.86,7.43,8.79,14.79,22.44,21.29,36.44,5.79,12.43,10.79,25.08,14.5,35.01,1.64,4.43,.14,9.43-3.79,12.15l-6.79,4.86c1.89,3.01,3.48,5.28,4.79,6.79l14.92-17.33,1.06-69.97c0-.51,.43-.93,.94-.91,.51,0,.92,.43,.91,.94l-1.07,70.3c0,.22-.08,.43-.22,.59l-15.19,17.64c2.14,1.3,7.42,2.28,10.07,2.73,.72,.14,1.36,.21,1.93,.36,2.93,.57,9.15,1.43,17,2.36,22.29,2.72,49.66,5.07,56.3,4.07,8.14-1.21,23.08-10.22,29.44-15.58,4.36-3.79,7.08-10.29,9.72-16.65,2.36-5.72,4.57-11.15,8.07-14.65-2,.21-3.29,.36-3.5,.43-5.14,3.14-14.5,8.43-19.72,8.57l-19.01,1.79c-2.22,.21-4.36,.14-6.5-.21l-18.86-3.22c-.36,0-.79-.07-1.14-.07-10.43-1.07-19.72-11.15-20.43-22.08l-.21-2.57c-.72-11.07,7.72-20.72,18.86-21.44l40.8-1.14c2.86-.14,5.5,1.21,7.22,3.5,5.29,7.15,16.36,10.93,22.15,11.65,.14,.07,.29,.07,.43,.14,24.29,1.29,47.02,.79,71.02,.21,9.86-.21,20.08-.5,30.94-.57,9.36-.14,21.29-1,33.01-1.93,1-.07,1.93-.14,2.86-.21,10.86-.79,21.08-1.64,29.44-1.86,.21-1.57,.5-3,.78-4.29l-54.37,2.36-106.82,4.64c-1.14,.07-2.22-.43-2.93-1.29l-25.15-28.65-5-5.72c-1-1.14-1.21-2.72-.57-4l27.37-56.16c.64-1.29,1.79-2.07,3.29-2.07l93.53,.43-125.83-10.22Zm-144.19,41.9l-82.12,11.09h-.13s-3.81,0-8.53,2.37c-4.35,2.18-10.43,6.89-14.67,16.92-.14,.33-.46,.54-.8,.57-.14,0-.28-.01-.42-.07-.47-.2-.69-.74-.49-1.22,4.48-10.62,10.98-15.6,15.65-17.91,4.79-2.37,8.62-2.5,9.21-2.51l82.06-11.08c.51-.07,.98,.29,1.05,.8,.07,.51-.29,.98-.8,1.05Zm142.12,36.11l-58.05,5.26c-6.49,.59-11.66,5.51-12.56,11.97l-2.07,14.83c-.06,.44-.43,.77-.86,.8-.06,0-.13,0-.19,0-.51-.07-.86-.54-.79-1.05l2.07-14.83c1.02-7.32,6.88-12.89,14.23-13.56l58.05-5.26c.53-.07,.96,.33,1.01,.84,.05,.51-.33,.96-.84,1.01Zm38.25-72.29l-19.76,1.3-14.52,21.26c-.05,.07-.12,.12-.19,.17,2.36,1.69,4.68,5.05,3.08,11.93-2.22,9.72-13.72,27.15-20.93,32.94-1.43,1.14-2.64,1.86-3.65,2-4.43,.57-9.5,.79-14.86,.79-5.86,0-12.07-.21-18.15-.43-6.29-.29-12.29-.43-17.65-.5-10.93,0-21.36-2.29-30.37-5.86-.36-.07-.72-.21-1-.36-11.86-4.86-21.08-11.72-25.51-18.15-1.64-2.36-2.57-4.72-2.72-6.86-.21-3.43,1.14-7.29,8.72-10.72,6-2.72,16.01-5.22,32.22-7.15,5.93-.64,12.72-1.29,20.51-1.79l3.86-.29c26.44-1.79,53.15-2.98,64.96,3.52,.03-.11,.06-.21,.13-.31l14.78-21.63c.16-.24,.42-.38,.71-.4l20.21-1.33c.51-.03,.95,.35,.99,.87,.03,.51-.35,.95-.87,.99Z"/><path class="f" d="M95.07,391.7c-3.08-15.12-5.11-30.57-6.03-45.97-.87-14.66-.73-29.48,.38-44.15h-.04c-3.57,.72-7.93,1.65-12.5,2.65-14.36,3.07-30.58,6.64-40.87,6.07-3.93-.21-15.36-3.5-17.86-9.5-3.36-8.07,10.72-50.16,18.51-63.23-9.36,11.72-20.08,41.08-26.87,61.66v16.86c0,6.99,.29,13.97,.85,20.96l14.26-2.08c2.37-.35,4.57,1.3,4.92,3.66,.35,2.37-1.3,4.57-3.66,4.92l-14.65,2.14v.06c1.07,9.07,2.57,17.93,4.57,26.72,2.36,10.57,5.36,20.94,9,31.01l69.99-11.78Z"/><path class="f" d="M105.05,454.8c-5.07-8.15-8.63-17.03-10.57-26.47-2.34-11.4-2.17-23.39,.47-34.77l-69.23,11.72c7.15,19.58,16.72,38.23,28.3,55.52l51.04-6Z"/><path class="f" d="M96.3,427.95c1.96,9.51,5.59,18.45,10.81,26.62l112.75-13.15c-2.72-8.86-5.64-19.08-6.5-24.22-.76-4.39-1.17-11-1.35-17.74-7.15-30.13-9.08-60.7-5.7-90.97,1.84-16.54,5.3-33.03,10.27-49.02,.11-.36,.43-.62,.81-.65l14.15-1.23c-3.33-10.86-8.04-21.26-13.97-31.03-6.79-11.22-15.15-21.51-24.79-30.44-1.07-1-1.43-2.5-1-3.86,.21-.71,.64-1.29,1.14-1.71-2.79,.29-5.36,.5-7.79,.79-10.57,1-25.36,3.43-40.58,6.29h-.07c-20.58,3.86-41.8,8.57-54.52,12.15-8.5,2.36-20.51,7.07-31.08,12.36-6.93,3.5-13.29,7.22-17.65,10.86,4.07-2.29,11.5-5.22,20.36-8.36,24.29-8.65,58.95-18.65,61.74-19.36l2.29-.57c4.79-1.21,10.93-2.79,17.22-4.07,9.07-1.79,18.58-3,24.94-1.57,7,1.64,14.79,4.93,24.08,17.93,5.43,7.5,22.29,40.01,21.79,45.01-.71,6.29-12.58,17.72-19.58,18.86-16.93,2.64-38.58,7.22-59.52,11.65-16.36,3.5-31.8,6.79-43.23,8.72-1.14,14.74-1.29,29.65-.42,44.39,.91,15.34,2.94,30.74,6.01,45.79h.05l97.17-16.37c.43-.07,.86,.14,1,.57l6.36,16.36c.14,.43-.07,1-.57,1.14-.43,.21-1,0-1.14-.5l-6.15-15.65-96.7,16.28c-2.74,11.34-2.97,23.32-.63,34.69Zm2.85-106.64l27.73-3.05c2.38-.26,4.52,1.46,4.78,3.84,.26,2.38-1.45,4.52-3.84,4.78l-27.73,3.05c-.06,0-.13,.01-.19,.02-2.3,.15-4.34-1.54-4.59-3.85-.26-2.38,1.45-4.52,3.84-4.78Z"/><path d="M698.8,356.97c.07-4.36,0-37.23-4.72-48.37-1.14-2.79-4.79-5.79-6.5-6.79-1.72-1.02-5.77-3.01-7.9-4.03,2.86-6.43,4.09-14.09,3.09-20.09-1.98-11.71-5.69-17.88-19.64-16.96-.21,.01-.41,.04-.62,.06-.77-2.21-1.16-3.56-1.16-3.56-.21-.57-.5-1-.86-1.43l-16.58-17.65c-.64-.71-1.5-1.07-2.36-1.14l-79.96-6.5V0H0V317.82c0,1.21,0,2.43,.07,3.72v2c.21,6.29,.57,12.58,1.21,18.86,1.07,11,2.86,21.86,5.29,32.58,2.29,10.29,5.22,20.29,8.72,30.15,.14,.64,.36,1.22,.64,1.79,6.86,19.36,16.08,37.87,27.22,55.09,.71,1.14,1.43,2.29,2.29,3.43,.71,1.14,1.43,2.29,2.29,3.43,6.5,9.5,13.65,18.65,21.44,27.29,10.57,11.79,22.29,22.72,34.94,32.58l176.7,137.26,176.7-137.26c21.44-16.65,40.01-36.23,55.23-58.02,12.36,31.8,44.3,53.3,80.17,50.94,44.3-2.93,77.88-41.08,74.95-85.24-.57-8.29-2.36-16.22-5.14-23.58l4.07-2.5c.21,.43,.43,.79,.71,1.14,1.22,1.43,3,2.21,4.79,2.07,1.21-.07,2.43-.57,3.36-1.36,4.07-3.5,13.58-12.79,16.58-17.29,3.29-5,6.29-15.79,6.93-21.08,.5-4.14-.21-15.08-.36-16.86Zm-247.29,164.05l-170.7,132.54-170.7-132.54c-10.22-7.93-19.79-16.65-28.58-25.94l61.31-5.22c8.29-.71,15.22,5.64,15.79,13.86v.21c1.64,25.44,24.94,44.66,52.02,42.87,18.71-1.24,34.33-12.22,41.59-27.33,9.56,11.68,21.42,20.31,34.63,24.38,.11,.04,.23,.08,.34,.11,5.58,1.69,11.3,2.54,17.03,2.54h.05c6.55,1.3,13.22,1.74,19.95,1.3,.26-.02,.51-.04,.77-.06,.01,0,.02,0,.03,0,0,0,.02,0,.03,0,7.43-.57,14.56-2.2,21.3-4.76,.01,0,.03,0,.04-.02,8-3.05,15.44-7.4,22.15-12.83,.15-.07,.28-.17,.37-.31,14.72-12.06,25.86-29.33,31.53-49.35l101.34-11.27c-14.08,19.36-31.01,36.8-50.3,51.8ZM96.93,393.26l96.7-16.28,6.15,15.65c.14,.5,.72,.71,1.14,.5,.5-.14,.72-.71,.57-1.14l-6.36-16.36c-.14-.43-.57-.64-1-.57l-97.17,16.36h-.05c-3.08-15.05-5.1-30.45-6.01-45.79-.87-14.74-.72-29.65,.42-44.39,11.43-1.93,26.87-5.22,43.23-8.72,20.93-4.43,42.58-9,59.52-11.65,7-1.14,18.86-12.58,19.58-18.86,.5-5-16.36-37.51-21.79-45.01-9.29-13-17.08-16.29-24.08-17.93-6.36-1.43-15.86-.21-24.94,1.57-6.29,1.29-12.43,2.86-17.22,4.07l-2.29,.57c-2.79,.71-37.44,10.72-61.74,19.36-8.86,3.14-16.29,6.07-20.36,8.36,4.36-3.64,10.72-7.36,17.65-10.86,10.57-5.29,22.58-10,31.08-12.36,12.72-3.57,33.94-8.29,54.52-12.15h.07c15.22-2.86,30.01-5.29,40.58-6.29,2.43-.29,5-.5,7.79-.79-.5,.43-.93,1-1.14,1.71-.43,1.36-.07,2.86,1,3.86,9.65,8.93,18.01,19.22,24.79,30.44,5.93,9.77,10.63,20.17,13.97,31.03l-14.15,1.23c-.38,.03-.69,.29-.81,.65-4.97,15.99-8.43,32.48-10.27,49.02-3.37,30.26-1.45,60.83,5.7,90.97,.18,6.74,.59,13.34,1.35,17.74,.86,5.14,3.79,15.36,6.5,24.22l-112.75,13.15c-5.21-8.17-8.85-17.11-10.81-26.62-2.34-11.37-2.12-23.35,.63-34.69Zm454.89-163.62l-79.1-6.43h-.64c-5.01,.48-10.04,.98-15.06,1.48l-11.18-.91-45.4-24.58-1.11-.6c.37-1.64-.34-3.3-1.83-4.12l-2.93-1.57c-.43-.21-.86-.36-1.29-.43-2.29-.29-38.87-5.07-71.09-8.65-4.86-.5-9.65-1-14.22-1.5h0c-10.29-1-19.36-1.79-25.72-2.07-6.29-.29-14.29-.36-23.15-.21-24.58,.36-55.73,2-74.74,3.93-9.07,.93-21.65,2.86-35.15,5.29-21.72,3.93-45.8,9.15-61.23,13.43-8.22,2.29-22.51,7.72-35.01,14.22-2.14,1.07-4.21,2.29-6.22,3.43-5.79,3.43-10.72,7-14.08,10.58-7.65,8.29-16.08,27.51-22.87,45.94V9.79H551.82V229.65Zm129.12,48.36c1.06,6.32-.53,14.66-3.97,21.13-.44-.5-.89-1.09-1.39-1.8-.11-.15-.21-.3-.32-.45-.09-.12-.16-.23-.23-.34-.12-.17-.22-.33-.32-.49l-.29-.46-13.98-32.59c.92-.21,1.86-.35,2.8-.41,12.61-.83,15.85,4.54,17.68,15.42Zm6.43,33.45c.79,1.86,1.43,4.64,1.93,8-1.57-.36-3.22-.71-4.29-.79-5.14-.14-8.14,.57-9.86,1.29l1.36-15.5c2.43,1.14,6,2.86,7.36,3.72,1.22,.71,3.14,2.57,3.5,3.29Zm-27.22-36.75l7.17,16.32-184.3,4.15,8.98-18.69,168.15-1.79Zm-312.24,265.67c.15-.34,.31-.68,.46-1.01,.79-1.79,1.6-3.64,2.86-4.77,1.16-1.03,2.93-1.58,4.8-2.16,2.25-.7,4.59-1.42,6.15-3.11,1.49-1.6,2.02-3.92,2.54-6.15,.44-1.89,.89-3.84,1.9-5.17,.94-1.24,2.56-2.12,4.28-3.05,2.08-1.13,4.23-2.29,5.44-4.27,1.14-1.86,1.2-4.24,1.26-6.53,.05-1.94,.1-3.94,.82-5.45,.67-1.39,2.08-2.58,3.57-3.83,1.81-1.52,3.69-3.1,4.48-5.28,.65-1.81,.12-3.82-.4-5.77-.42-1.6-.82-3.1-.51-4.24,.34-1.24,1.55-2.42,2.71-3.57,1.4-1.37,2.84-2.79,3.18-4.58,.36-1.89-.49-3.79-1.3-5.63-.67-1.51-1.3-2.93-1.18-4.11,.14-1.28,1.15-2.64,2.12-3.96,1.16-1.57,2.36-3.19,2.42-5.01,.06-1.93-1.07-3.68-2.17-5.37-.9-1.38-1.74-2.69-1.79-3.87-.06-1.31,.73-2.82,1.5-4.28,.9-1.72,1.84-3.49,1.62-5.28-.23-1.93-1.61-3.5-2.95-5.03-1.08-1.23-2.1-2.39-2.32-3.52-.25-1.33,.33-2.97,.89-4.55,.64-1.8,1.3-3.65,.86-5.34-.52-1.97-2.22-3.43-3.72-4.72-.13-.12-.26-.23-.39-.34,1.18,.17,2.47,.35,3.87,.54,.33,.3,.66,.59,.99,.88,1.43,1.23,2.92,2.5,3.31,4,.32,1.2-.25,2.8-.85,4.49-.68,1.9-1.38,3.87-1.02,5.77,.33,1.7,1.62,3.17,2.88,4.59,1.22,1.38,2.47,2.81,2.64,4.25,.15,1.29-.65,2.81-1.5,4.43-.93,1.76-1.88,3.58-1.8,5.46,.08,1.76,1.15,3.41,2.19,5.02,.99,1.53,2.01,3.11,1.97,4.54-.04,1.31-1.07,2.71-2.17,4.19-1.17,1.59-2.39,3.23-2.59,5.09-.19,1.75,.61,3.56,1.39,5.31,.74,1.66,1.5,3.38,1.24,4.77-.25,1.3-1.49,2.52-2.81,3.81-1.41,1.38-2.86,2.8-3.35,4.59-.47,1.7,.04,3.61,.53,5.46,.47,1.76,.95,3.58,.47,4.91-.66,1.81-2.35,3.23-4.13,4.74-1.65,1.39-3.36,2.83-4.24,4.67-.94,1.95-1,4.27-1.05,6.51-.06,2.26-.11,4.39-1.04,5.91-1,1.64-2.94,2.69-4.99,3.81-1.9,1.03-3.86,2.1-5.1,3.72-1.3,1.71-1.82,3.94-2.33,6.1-.06,.26-.12,.53-.19,.79-5.94,4.8-12.47,8.74-19.46,11.65Zm-21.06,5.35c.97-1.46,1.99-2.92,3.29-3.73,1.23-.77,2.97-.98,4.81-1.21,2.24-.28,4.56-.57,6.35-1.9,1.66-1.23,2.56-3.29,3.44-5.28,.75-1.7,1.52-3.46,2.72-4.53,1.1-.98,2.78-1.5,4.55-2.05,2.15-.67,4.38-1.36,5.88-2.97,1.42-1.54,1.93-3.75,2.42-5.88,.41-1.79,.84-3.65,1.8-4.91,.89-1.17,2.43-2,4.06-2.89,1.99-1.08,4.04-2.19,5.2-4.09,1.09-1.78,1.15-4.05,1.2-6.24,.05-1.84,.09-3.75,.78-5.18,.63-1.32,1.97-2.44,3.39-3.64,1.73-1.46,3.52-2.96,4.28-5.05,.63-1.74,.12-3.66-.38-5.52-.4-1.51-.78-2.95-.49-4.02,.32-1.17,1.47-2.29,2.57-3.37,1.34-1.31,2.72-2.66,3.05-4.39,.35-1.81-.46-3.63-1.25-5.39-.64-1.43-1.24-2.78-1.12-3.89,.13-1.21,1.09-2.5,2.01-3.75,1.11-1.5,2.26-3.05,2.31-4.8,.06-1.85-1.02-3.52-2.07-5.14-.85-1.31-1.65-2.55-1.7-3.66-.06-1.23,.7-2.66,1.43-4.05,.86-1.64,1.76-3.34,1.55-5.05-.22-1.86-1.54-3.36-2.82-4.81-1.03-1.17-1.99-2.27-2.2-3.34-.24-1.25,.31-2.8,.85-4.3,.61-1.72,1.25-3.5,.82-5.12-.5-1.89-2.12-3.28-3.55-4.51-.72-.62-1.41-1.21-1.9-1.8,.44,.08,.87,.15,1.25,.23,.7,.14,1.57,.29,2.57,.45,.64,.79,1.47,1.52,2.29,2.23,1.36,1.17,2.76,2.37,3.14,3.78,.3,1.13-.24,2.64-.81,4.24-.65,1.82-1.32,3.7-.97,5.52,.31,1.63,1.55,3.04,2.75,4.4,1.15,1.31,2.34,2.66,2.5,4.02,.15,1.21-.62,2.66-1.42,4.2-.88,1.68-1.8,3.42-1.71,5.23,.07,1.68,1.1,3.26,2.09,4.8,.94,1.45,1.91,2.95,1.87,4.3-.04,1.23-1.02,2.56-2.06,3.96-1.12,1.52-2.28,3.08-2.47,4.86-.18,1.68,.58,3.4,1.33,5.07,.7,1.58,1.43,3.21,1.18,4.53-.23,1.22-1.41,2.38-2.66,3.61-1.34,1.32-2.73,2.68-3.2,4.4-.45,1.63,.04,3.45,.5,5.21,.44,1.67,.9,3.4,.45,4.66-.62,1.71-2.23,3.06-3.93,4.49-1.58,1.33-3.21,2.7-4.05,4.45-.9,1.87-.95,4.08-1.01,6.21-.05,2.15-.1,4.17-.98,5.61-.95,1.55-2.79,2.55-4.74,3.6-1.82,.99-3.7,2-4.88,3.56-1.25,1.65-1.75,3.8-2.23,5.88-.48,2.09-.94,4.07-2.09,5.31-1.23,1.33-3.23,1.95-5.34,2.6-1.98,.61-4.03,1.25-5.49,2.55-1.56,1.4-2.46,3.44-3.33,5.41-.44,1.01-.87,1.95-1.37,2.8-5.87,2.19-12.05,3.66-18.46,4.32Zm-2.71,.23c-8.19,.54-16.28-.25-24.17-2.35,2.63,.2,5.26,.22,7.9,.05,18.84-1.24,37.15-12.34,50.22-30.46,13.42-18.6,20.07-42.23,18.72-66.56-.79-14.26-4.45-28.19-10.65-40.67,2.55,1.44,6.31,2.25,9.61,2.85,.5,1.42,1.8,2.55,3.07,3.64,1.29,1.11,2.62,2.25,2.97,3.58,.28,1.07-.23,2.5-.77,4.02-.62,1.74-1.26,3.53-.92,5.28,.3,1.57,1.48,2.92,2.63,4.22,1.09,1.24,2.22,2.52,2.37,3.81,.14,1.14-.59,2.51-1.35,3.97-.84,1.6-1.72,3.26-1.64,4.99,.07,1.61,1.05,3.12,2,4.59,.89,1.38,1.81,2.81,1.77,4.08-.04,1.16-.96,2.42-1.95,3.75-1.07,1.45-2.18,2.95-2.36,4.65-.18,1.61,.56,3.26,1.27,4.85,.67,1.5,1.36,3.05,1.12,4.29-.22,1.15-1.34,2.25-2.52,3.41-1.28,1.26-2.61,2.56-3.06,4.21-.43,1.56,.03,3.31,.48,4.99,.42,1.58,.85,3.22,.43,4.41-.59,1.62-2.11,2.91-3.73,4.26-1.51,1.27-3.06,2.57-3.87,4.25-.86,1.79-.91,3.9-.96,5.93-.05,2.04-.1,3.96-.93,5.32-.9,1.47-2.65,2.42-4.5,3.42-1.73,.94-3.52,1.91-4.65,3.4-1.2,1.58-1.67,3.63-2.13,5.62-.46,1.99-.89,3.86-1.98,5.03-1.17,1.25-3.06,1.84-5.07,2.47-1.89,.59-3.84,1.19-5.24,2.44-1.5,1.34-2.35,3.28-3.18,5.17-.81,1.85-1.58,3.6-2.85,4.54-1.39,1.04-3.46,1.3-5.46,1.54-1.96,.24-3.99,.5-5.56,1.48-1.76,1.09-2.95,2.9-4.1,4.65-.19,.3-.39,.58-.58,.87-.11,0-.23,.02-.34,.03Zm-88.44-90.62s-.02-.26-.02-.29c-.22-3.75-.26-7.53-.11-11.26,.03-.95,.08-1.89,.14-2.83,2.69-42.44,28.06-74.78,60.34-76.91,37.5-2.51,73.1,36.25,76.17,82.87,3.07,46.61-27.14,89.67-64.65,92.14-6.14,.41-12.29-.31-18.27-2.13-.04-.01-.07-.02-.11-.03-28.92-8.83-50.91-42.13-53.47-80.99h0l-.03-.57Zm-10.38-11.82c-2.91-9.41-6.47-21.46-7.43-27.12-1.48-8.74-1.58-26.79-1.17-36.23,.82-19.09,6.87-52.86,17.26-64.71,8.69-9.91,26.78-12.76,37.6-14.46,1.07-.17,2.07-.33,3-.48,1.99-.33,4.23-.78,6.59-1.25,13.15-2.64,31.15-6.25,45.08,2.35,5.25,3.24,19.86,17.22,42.16,76.82,.93,2.47,.06,5.26-2.1,6.79l-7.22,5.09c-2.11-2.85-4.35-5.56-6.7-8.12-.06-.11-.12-.22-.18-.34-.26-.49-.53-.98-.79-1.48-.28-.52-.55-1.05-.83-1.57-.27-.52-.54-1.03-.82-1.55-.26-.5-.52-1-.78-1.5-.29-.56-.58-1.11-.87-1.67-.2-.38-.4-.77-.6-1.15-.89-1.71-1.78-3.42-2.66-5.12-5.15-9.94-10.02-19.33-13.8-25.23-.43-.66-.87-1.3-1.32-1.92-9.09-12.34-23.73-15.35-36.99-15.46-1.99-.02-3.95,.03-5.85,.13-1.27,.06-2.51,.14-3.73,.24s-2.4,.2-3.54,.32c-2.29,.23-4.43,.48-6.35,.71l-1.77,.21c-23.07,2.7-33.46,11.61-39.7,34.07-.22,.8-.44,1.63-.64,2.46-.05,.21-.1,.41-.15,.62-.16,.65-.31,1.32-.45,1.99-.04,.18-.08,.36-.11,.54-.15,.74-.3,1.49-.44,2.25-.02,.08-.03,.17-.05,.25-1.88,10.27-2.59,22.57-2.11,36.74,.3,8.92,1.04,17.14,1.78,23.66-.57,3.61-.99,7.29-1.23,11.05-.06,.91-.1,1.81-.13,2.7l-2.93,.34Zm146.05,79.43c.99-1.3,2.7-2.23,4.51-3.21,.7-.38,1.4-.76,2.08-1.18-2.56,2.91-5.3,5.63-8.18,8.14,.37-1.43,.82-2.74,1.59-3.75Zm11.51-14.51c.05-2.04,.1-4.15,.87-5.75,.71-1.48,2.19-2.72,3.76-4.05,1.9-1.59,3.86-3.25,4.69-5.53,.68-1.88,.12-3.99-.42-6.02-.45-1.68-.87-3.28-.53-4.49,.36-1.31,1.63-2.56,2.86-3.76,1.46-1.44,2.98-2.92,3.33-4.79,.37-1.96-.51-3.95-1.37-5.87-.71-1.59-1.38-3.1-1.24-4.35,.15-1.36,1.21-2.79,2.24-4.18,1.21-1.64,2.47-3.34,2.53-5.24,.06-2.01-1.12-3.84-2.27-5.61-.94-1.46-1.84-2.84-1.89-4.09-.06-1.38,.77-2.97,1.58-4.51,.94-1.8,1.92-3.65,1.7-5.51-.24-2.02-1.69-3.67-3.09-5.26-1.14-1.29-2.21-2.51-2.45-3.72-.27-1.4,.35-3.13,.94-4.79,.67-1.88,1.37-3.83,.9-5.59-.42-1.59-1.54-2.83-2.79-3.96,1.25,.16,2.55,.33,3.92,.49,3.55,9.77,5.71,20.11,6.41,30.74,1.76,26.82-6.06,51.76-20.12,70.45,.35-1.46,.39-3.05,.43-4.61Zm121.87-268.09c-1.5,0-2.64,.79-3.29,2.07l-27.37,56.16c-.64,1.29-.43,2.86,.57,4l5,5.72,25.15,28.65c.72,.86,1.79,1.36,2.93,1.29l106.82-4.64,54.37-2.36c-.28,1.29-.57,2.72-.78,4.29-8.36,.21-18.58,1.07-29.44,1.86-.93,.07-1.86,.14-2.86,.21-11.72,.93-23.65,1.79-33.01,1.93-10.86,.07-21.08,.36-30.94,.57-24.01,.57-46.73,1.07-71.02-.21-.14-.07-.28-.07-.43-.14-5.79-.71-16.86-4.5-22.15-11.65-1.71-2.29-4.36-3.64-7.22-3.5l-40.8,1.14c-11.15,.71-19.58,10.36-18.86,21.44l.21,2.57c.71,10.93,10,21.01,20.43,22.08,.36,0,.79,.07,1.14,.07l18.86,3.22c2.14,.36,4.29,.43,6.5,.21l19.01-1.79c5.22-.14,14.58-5.43,19.72-8.57,.22-.07,1.5-.21,3.5-.43-3.5,3.5-5.72,8.93-8.07,14.65-2.64,6.36-5.36,12.86-9.72,16.65-6.36,5.36-21.29,14.36-29.44,15.58-6.64,1-34.01-1.36-56.3-4.07-7.86-.93-14.07-1.79-17-2.36-.57-.14-1.21-.21-1.93-.36-2.65-.45-7.93-1.43-10.07-2.73l15.19-17.64c.14-.17,.22-.37,.22-.59l1.07-70.3c0-.51-.4-.94-.91-.94-.51-.01-.94,.4-.94,.91l-1.06,69.97-14.92,17.33c-1.3-1.51-2.9-3.77-4.79-6.79l6.79-4.86c3.93-2.72,5.43-7.72,3.79-12.15-3.72-9.93-8.72-22.58-14.5-35.01-6.5-14-13.86-27.65-21.29-36.44-.21-.29-.43-.57-.71-.86-2.5-2.93-5.07-5.29-7.57-6.79-15.43-9.57-34.44-5.72-48.37-2.93-2.36,.43-4.5,.86-6.43,1.21l-2.93,.43c-6.22,1-14.65,2.29-22.65,5.14h-.07c-6.79,2.36-13.22,5.72-17.65,10.86-1.57,1.79-3,3.93-4.36,6.36-3.43,6.29-6.22,14.58-8.36,23.15-3.57,14.22-5.36,29.37-5.72,38.01-.1,2.82-.17,6.39-.17,10.26-5.49-27.07-6.76-54.43-3.74-81.54,1.81-16.22,5.18-32.39,10.02-48.08l13.93-1.21c.02,.05,.03,.11,.05,.16,.57,1.79,2.36,2.93,4.14,2.57,1.07-.21,2.14-.36,3.21-.57,10.36-1.79,20.86-3.5,31.29-5.14,14.43-2.43,28.87-4.64,43.23-6.79,11.28-1.69,22.66-3.26,34.05-4.8,26.47,3.13,28.86,9.59,28.89,9.68,.1,.45,.51,.74,.96,.71l.15-.02c.5-.11,.81-.63,.7-1.13-.08-.37-1.09-3.75-10.14-6.91-3.75-1.31-8.3-2.4-13.62-3.27,.3-.04,.6-.08,.9-.12,10.79-1.43,21.65-2.86,32.51-4.14,28.01-3.43,56.09-6.43,84.03-9.07l125.83,10.22-93.53-.43Zm-309.09,32.76c-.33,.24-.78,.21-1.08-.08l-2.31-2.2c-.33-.31-.35-.83-.06-1.17l7.4-8.79c.15-.18,.23-.42,.22-.66l-.18-2.69c-.02-.3,.11-.58,.35-.77,.24-.19,.54-.24,.83-.14l4.97,1.63,1.11,3.13c-1.96,2.97-4.27,5.7-6.86,8.13-1.39,1.3-2.87,2.52-4.39,3.62Zm-58.29-32.79c5.14-3.25,14.29-4.25,22.57-4.79,.77-.05,1.53-.1,2.27-.16,.71-.05,1.41-.1,2.1-.14,7.15-.47,13.38-.59,18.57,2.6,7.17,4.41,13.66,14.55,12.61,19.72-1.19,5.88-6.17,12.66-14.63,14.57-3.71,.84-8.83,.56-13.35,.32-2.08-.11-4.05-.22-5.67-.2-18.64,.21-29.75-6-30.47-17.03-.32-4.86,.46-11.38,6-14.88Zm-28.75,50.12v.36l-17.72,3.5c0-.14,0-.29,.07-.43,1.5-12.58,3.57-25.29,6.07-37.73,.28-1.71,.64-3.36,1-5,2.29-11,5-22.08,8.07-32.87l14.08-4.36c-2.29,9.93-4.29,20.01-5.93,30.08-.57,3.29-1.07,6.57-1.5,9.86-1.86,12.08-3.21,24.37-4.14,36.58ZM16.08,372.48c-2-8.79-3.5-17.65-4.57-26.72v-.06l14.65-2.14c2.37-.35,4.01-2.55,3.66-4.92-.35-2.37-2.55-4.01-4.92-3.66l-14.26,2.08c-.57-6.99-.85-13.97-.85-20.96v-16.86c6.79-20.58,17.51-49.95,26.87-61.66-7.79,13.08-21.86,55.16-18.51,63.23,2.5,6,13.93,9.29,17.86,9.5,10.29,.57,26.51-3,40.87-6.07,4.57-1,8.93-1.93,12.5-2.64h.04c-1.11,14.65-1.25,29.48-.38,44.14,.91,15.39,2.94,30.85,6.03,45.97l-69.99,11.78c-3.64-10.07-6.64-20.44-9-31.01Zm9.64,32.8l69.23-11.72c-2.64,11.38-2.81,23.37-.47,34.77,1.94,9.44,5.5,18.32,10.57,26.47l-51.04,6c-11.58-17.29-21.15-35.94-28.3-55.52Z"/><path class="c" d="M660.45,263l13.98,32.59,.29,.46c.1,.16,.2,.31,.32,.49,.07,.11,.14,.21,.23,.34,.1,.16,.21,.3,.32,.45,.5,.72,.95,1.3,1.39,1.8,3.44-6.47,5.03-14.8,3.97-21.13-1.83-10.88-5.07-16.25-17.68-15.42-.94,.06-1.88,.2-2.8,.41Z"/><polygon class="c" points="667.31 291.03 660.14 274.71 491.99 276.5 483.01 295.18 667.31 291.03"/><path class="c" d="M471.39,262.73c-9.9-6.56-38.72-5.16-58.59-3.85-1.67,.11-3.28,.22-4.81,.32-1.36,.09-2.66,.18-3.89,.26-50.35,3.31-57.42,10.65-57.15,14.72,.53,8.11,24.25,27.11,54.98,26.99,5.52-.02,11.51,.2,17.86,.44,11.53,.44,23.46,.89,32.24-.28,2.63-.42,18.26-20,20.79-31.67,.75-3.48,.27-5.81-1.43-6.94Z"/><path class="e" d="M229.59,429.44c-.74-6.52-1.47-14.75-1.78-23.66-.48-14.16,.23-26.47,2.11-36.74,.02-.08,.03-.17,.05-.25,.14-.76,.29-1.51,.44-2.25,.04-.18,.07-.36,.11-.54,.14-.67,.3-1.34,.45-1.99,.05-.21,.1-.42,.15-.62,.21-.84,.42-1.66,.64-2.46,6.24-22.46,16.63-31.38,39.7-34.07l1.77-.21c1.93-.23,4.07-.49,6.35-.71,1.14-.11,2.33-.22,3.54-.32s2.46-.18,3.73-.24c1.9-.09,3.86-.14,5.85-.13,13.26,.11,27.9,3.12,36.99,15.46,.45,.62,.89,1.26,1.32,1.92,3.78,5.9,8.65,15.28,13.8,25.23,.88,1.7,1.77,3.41,2.66,5.12,.2,.38,.4,.77,.6,1.15,.29,.56,.58,1.11,.87,1.67,.26,.5,.52,1,.78,1.5,.27,.52,.55,1.03,.82,1.55,.28,.53,.56,1.05,.83,1.57,.27,.5,.53,.99,.79,1.48,.06,.11,.12,.22,.18,.34,2.35,2.55,4.59,5.27,6.7,8.12l7.22-5.09c2.16-1.52,3.03-4.31,2.1-6.79-22.29-59.61-36.91-73.58-42.16-76.82-13.92-8.6-31.93-4.99-45.08-2.35-2.37,.47-4.6,.92-6.59,1.25-.93,.15-1.94,.31-3,.48-10.81,1.7-28.91,4.55-37.6,14.46-10.38,11.84-16.43,45.62-17.26,64.71-.4,9.44-.31,27.48,1.17,36.23,.96,5.65,4.52,17.71,7.43,27.12l2.93-.34c.03-.89,.07-1.79,.13-2.7,.24-3.76,.66-7.44,1.23-11.05Z"/><path class="f" d="M161.83,272.24c1.62-.02,3.59,.09,5.67,.2,4.52,.24,9.64,.52,13.35-.32,8.46-1.91,13.44-8.69,14.63-14.57,1.04-5.17-5.44-15.31-12.61-19.72-5.19-3.19-11.41-3.07-18.57-2.6-.69,.05-1.39,.09-2.1,.14-.75,.05-1.5,.1-2.27,.16-8.27,.54-17.42,1.54-22.57,4.79-5.54,3.5-6.32,10.02-6,14.88,.73,11.04,11.83,17.25,30.47,17.03Z"/><path class="e" d="M200.04,269.5c2.59-2.43,4.89-5.16,6.86-8.13l-1.11-3.13-4.97-1.63c-.29-.09-.59-.04-.83,.14-.24,.19-.37,.47-.35,.77l.18,2.69c.02,.24-.06,.48-.22,.66l-7.4,8.79c-.29,.35-.26,.86,.06,1.17l2.31,2.2c.3,.28,.75,.32,1.08,.08,1.52-1.1,3-2.32,4.39-3.62Z"/><path class="e" d="M114.25,244.01c1.64-10.07,3.64-20.15,5.93-30.08l-14.08,4.36c-3.07,10.79-5.79,21.86-8.07,32.87-.36,1.64-.72,3.29-1,5-2.5,12.43-4.57,25.15-6.07,37.73-.07,.14-.07,.29-.07,.43l17.72-3.5v-.36c.93-12.22,2.29-24.51,4.14-36.58,.43-3.29,.93-6.57,1.5-9.86Z"/><path class="d" d="M289.18,536.9s.07,.02,.11,.03c5.98,1.82,12.13,2.54,18.27,2.13,37.51-2.47,67.72-45.52,64.65-92.14-3.07-46.62-38.66-85.38-76.17-82.87-32.28,2.12-57.66,34.47-60.34,76.91-.06,.95-.11,1.89-.14,2.83-.15,3.73-.11,7.5,.11,11.26,0,.03,.02,.26,.02,.29l.03,.55h0c2.56,38.87,24.54,72.17,53.47,81Zm-35.52-92.87c.66-9.72,3.18-19.14,7.27-27.26,5.4-10.71,13.19-18.75,22.52-23.23,4.54-2.18,9.35-3.45,14.27-3.78,4.93-.32,9.86,.31,14.65,1.88,9.83,3.21,18.6,10.15,25.36,20.07,5.13,7.51,8.85,16.53,10.78,26.08,.7,3.46,1.18,7.03,1.41,10.61,.24,3.57,.23,7.18-.01,10.72-.67,9.73-3.19,19.16-7.28,27.26-5.39,10.71-13.18,18.74-22.51,23.22-4.53,2.18-9.33,3.46-14.27,3.78-.84,.05-1.68,.08-2.51,.08-4.09,0-8.16-.65-12.13-1.95-9.84-3.22-18.61-10.16-25.37-20.08-5.11-7.5-8.84-16.51-10.78-26.06-.7-3.48-1.18-7.05-1.41-10.62-.24-3.57-.23-7.17,.01-10.7Z"/><path d="M255.06,465.36c1.94,9.55,5.67,18.57,10.78,26.06,6.76,9.92,15.53,16.86,25.37,20.08,3.97,1.3,8.04,1.95,12.13,1.95,.84,0,1.67-.03,2.51-.08,4.94-.33,9.74-1.6,14.27-3.78,9.33-4.48,17.12-12.51,22.51-23.22,4.09-8.1,6.61-17.53,7.28-27.26,.24-3.54,.25-7.14,.01-10.72-.24-3.57-.71-7.14-1.41-10.61-1.93-9.54-5.66-18.56-10.78-26.08-6.76-9.92-15.54-16.86-25.36-20.07-4.79-1.57-9.72-2.2-14.65-1.88-4.93,.32-9.73,1.59-14.27,3.78-9.33,4.49-17.12,12.52-22.52,23.23-4.1,8.12-6.61,17.55-7.27,27.26-.24,3.54-.25,7.14-.01,10.7,.23,3.57,.71,7.15,1.41,10.62Zm9.57-45.69l12.17,6c2.39,1.18,5.13,1,7.35-.48,2.21-1.48,3.43-3.95,3.26-6.6l-1.39-21.17c7.69-3.53,16.27-4.09,24.33-1.6l1.39,21.16c.17,2.65,1.7,4.94,4.09,6.12,2.39,1.18,5.13,1,7.35-.48l11.27-7.54c4.41,6.69,7.66,14.62,9.44,23.02l-7.17,4.8c-2.21,1.48-3.43,3.95-3.25,6.6s1.7,4.94,4.09,6.12l7.73,3.81c-.67,8.57-2.85,16.86-6.34,24.05l-12.16-5.99c-2.39-1.18-5.14-1-7.35,.48-2.21,1.48-3.43,3.95-3.25,6.6l1.39,21.15c-7.67,3.53-16.25,4.1-24.33,1.61l-1.39-21.16c-.17-2.66-1.71-4.94-4.09-6.12-2.39-1.18-5.13-1-7.35,.48l-11.28,7.54c-4.4-6.68-7.65-14.61-9.44-23.02l7.17-4.79h0c1.38-.93,2.38-2.24,2.88-3.74,.3-.9,.43-1.87,.37-2.87-.17-2.66-1.7-4.94-4.09-6.12l-7.73-3.81c.66-8.56,2.84-16.85,6.34-24.06Z"/><path class="e" d="M266.03,447.54c2.39,1.18,3.92,3.47,4.09,6.12,.07,1-.06,1.97-.37,2.87-.51,1.5-1.5,2.81-2.88,3.74h0l-7.17,4.79c1.78,8.41,5.03,16.33,9.44,23.02l11.28-7.54c2.21-1.48,4.96-1.66,7.35-.48,2.39,1.18,3.92,3.46,4.09,6.12l1.39,21.16c8.09,2.49,16.67,1.92,24.33-1.61l-1.39-21.15c-.17-2.65,1.04-5.12,3.25-6.6,2.21-1.48,4.96-1.66,7.35-.48l12.16,5.99c3.49-7.2,5.68-15.48,6.34-24.05l-7.73-3.81c-2.39-1.18-3.92-3.47-4.09-6.12s1.04-5.12,3.25-6.6l7.17-4.8c-1.78-8.4-5.03-16.33-9.44-23.02l-11.27,7.54c-2.21,1.48-4.96,1.66-7.35,.48-2.39-1.18-3.92-3.46-4.09-6.12l-1.39-21.16c-8.06-2.49-16.64-1.93-24.33,1.6l1.39,21.17c.17,2.66-1.04,5.12-3.26,6.6-2.21,1.48-4.96,1.66-7.35,.48l-12.17-6c-3.5,7.21-5.68,15.5-6.34,24.06l7.73,3.81Zm47.66,3.25c.45,6.86-4.52,12.8-11.08,13.23-6.56,.43-12.26-4.8-12.72-11.66-.45-6.86,4.52-12.8,11.08-13.23,6.56-.43,12.26,4.8,12.72,11.66Z"/><path d="M300.97,439.12c-6.56,.43-11.53,6.37-11.08,13.23,.45,6.86,6.16,12.09,12.72,11.66,6.56-.43,11.53-6.37,11.08-13.23-.45-6.86-6.16-12.09-12.72-11.66Z"/><path class="d" d="M349.98,533.21c1.46-1.3,3.51-1.94,5.49-2.55,2.11-.66,4.11-1.28,5.34-2.6,1.15-1.24,1.6-3.21,2.09-5.31,.48-2.08,.98-4.23,2.23-5.88,1.18-1.56,3.06-2.58,4.88-3.56,1.95-1.06,3.79-2.05,4.74-3.6,.88-1.44,.93-3.46,.98-5.61,.05-2.13,.11-4.34,1.01-6.21,.84-1.76,2.47-3.13,4.05-4.45,1.7-1.43,3.31-2.78,3.93-4.49,.46-1.26,0-2.99-.45-4.66-.47-1.76-.95-3.59-.5-5.21,.47-1.72,1.86-3.08,3.2-4.4,1.25-1.23,2.43-2.38,2.66-3.61,.25-1.32-.48-2.95-1.18-4.53-.74-1.67-1.51-3.39-1.33-5.07,.19-1.78,1.35-3.34,2.47-4.86,1.04-1.4,2.02-2.73,2.06-3.96,.04-1.35-.93-2.85-1.87-4.3-.99-1.53-2.02-3.12-2.09-4.8-.08-1.81,.83-3.55,1.71-5.23,.81-1.53,1.57-2.98,1.42-4.2-.16-1.36-1.35-2.71-2.5-4.02-1.2-1.36-2.44-2.77-2.75-4.4-.35-1.82,.32-3.7,.97-5.52,.57-1.6,1.11-3.11,.81-4.24-.37-1.41-1.78-2.62-3.14-3.78-.82-.7-1.65-1.43-2.29-2.23-1-.16-1.86-.31-2.57-.45-.38-.07-.8-.15-1.25-.23,.49,.59,1.19,1.19,1.9,1.8,1.43,1.23,3.05,2.63,3.55,4.51,.43,1.62-.21,3.4-.82,5.12-.53,1.5-1.09,3.05-.85,4.3,.2,1.07,1.17,2.17,2.2,3.34,1.28,1.45,2.6,2.96,2.82,4.81,.2,1.71-.69,3.41-1.55,5.05-.73,1.38-1.48,2.82-1.43,4.05,.05,1.11,.85,2.35,1.7,3.66,1.05,1.62,2.13,3.29,2.07,5.14-.05,1.74-1.2,3.29-2.31,4.8-.92,1.25-1.88,2.54-2.01,3.75-.12,1.11,.48,2.46,1.12,3.89,.78,1.76,1.59,3.58,1.25,5.39-.33,1.72-1.71,3.08-3.05,4.39-1.11,1.09-2.25,2.21-2.57,3.37-.3,1.08,.08,2.51,.49,4.02,.49,1.86,1,3.78,.38,5.52-.76,2.09-2.55,3.6-4.28,5.05-1.42,1.19-2.76,2.32-3.39,3.64-.69,1.43-.74,3.34-.78,5.18-.05,2.19-.11,4.46-1.2,6.24-1.16,1.89-3.21,3.01-5.2,4.09-1.63,.89-3.17,1.72-4.06,2.89-.96,1.26-1.38,3.12-1.8,4.91-.49,2.14-1,4.35-2.42,5.88-1.5,1.62-3.73,2.31-5.88,2.97-1.78,.55-3.46,1.07-4.55,2.05-1.2,1.07-1.97,2.83-2.72,4.53-.88,1.99-1.78,4.05-3.44,5.28-1.79,1.33-4.1,1.62-6.35,1.9-1.84,.23-3.58,.44-4.81,1.21-1.3,.81-2.32,2.27-3.29,3.73,6.41-.66,12.58-2.12,18.46-4.32,.49-.84,.92-1.79,1.37-2.8,.87-1.97,1.76-4.01,3.33-5.41Z"/><path class="d" d="M369.87,521.84c1.23-1.62,3.2-2.69,5.1-3.72,2.05-1.11,3.99-2.17,4.99-3.81,.93-1.52,.98-3.65,1.04-5.91,.06-2.24,.11-4.55,1.05-6.51,.88-1.84,2.59-3.28,4.24-4.67,1.79-1.5,3.48-2.92,4.13-4.74,.48-1.34,0-3.15-.47-4.91-.49-1.85-1-3.76-.53-5.46,.49-1.79,1.95-3.22,3.35-4.59,1.32-1.29,2.56-2.51,2.81-3.81,.26-1.39-.5-3.11-1.24-4.77-.78-1.75-1.58-3.56-1.39-5.31,.2-1.86,1.42-3.5,2.59-5.09,1.09-1.48,2.13-2.87,2.17-4.19,.04-1.43-.98-3.01-1.97-4.54-1.04-1.6-2.11-3.26-2.19-5.02-.09-1.88,.87-3.7,1.8-5.46,.85-1.62,1.65-3.14,1.5-4.43-.17-1.44-1.43-2.87-2.64-4.25-1.25-1.42-2.55-2.89-2.88-4.59-.36-1.9,.34-3.87,1.02-5.77,.6-1.69,1.17-3.29,.85-4.49-.39-1.49-1.87-2.76-3.31-4-.34-.29-.67-.58-.99-.88-1.4-.19-2.69-.37-3.87-.54,.13,.11,.26,.23,.39,.34,1.5,1.29,3.2,2.75,3.72,4.72,.44,1.69-.22,3.54-.86,5.34-.56,1.58-1.15,3.22-.89,4.55,.22,1.13,1.24,2.29,2.32,3.52,1.34,1.52,2.72,3.09,2.95,5.03,.22,1.79-.72,3.56-1.62,5.28-.77,1.46-1.56,2.97-1.5,4.28,.05,1.18,.9,2.48,1.79,3.87,1.1,1.69,2.23,3.44,2.17,5.37-.06,1.82-1.26,3.44-2.42,5.01-.97,1.32-1.98,2.68-2.12,3.96-.13,1.18,.51,2.6,1.18,4.11,.82,1.84,1.66,3.74,1.3,5.63-.34,1.79-1.79,3.21-3.18,4.58-1.17,1.14-2.37,2.33-2.71,3.57-.31,1.14,.09,2.65,.51,4.24,.52,1.95,1.05,3.96,.4,5.77-.79,2.18-2.67,3.76-4.48,5.28-1.49,1.26-2.9,2.44-3.57,3.83-.72,1.51-.77,3.52-.82,5.45-.06,2.3-.12,4.67-1.26,6.53-1.21,1.97-3.36,3.14-5.44,4.27-1.72,.93-3.34,1.81-4.28,3.05-1.01,1.33-1.46,3.29-1.9,5.17-.52,2.24-1.05,4.55-2.54,6.15-1.57,1.69-3.9,2.42-6.15,3.11-1.87,.58-3.64,1.13-4.8,2.16-1.26,1.13-2.08,2.98-2.86,4.77-.15,.34-.31,.67-.46,1.01,6.99-2.91,13.52-6.84,19.46-11.65,.06-.26,.13-.52,.19-.79,.5-2.16,1.02-4.4,2.33-6.1Z"/><path class="d" d="M377.93,518.58c-.68,.41-1.38,.8-2.08,1.18-1.81,.98-3.51,1.9-4.51,3.21-.77,1.01-1.22,2.32-1.59,3.75,2.88-2.51,5.61-5.23,8.18-8.14Z"/><path class="d" d="M329.15,540.42c1.58-.98,3.6-1.23,5.56-1.48,2-.25,4.07-.51,5.46-1.54,1.26-.94,2.03-2.69,2.85-4.54,.83-1.88,1.68-3.83,3.18-5.17,1.4-1.25,3.35-1.85,5.24-2.44,2.01-.62,3.9-1.21,5.07-2.47,1.09-1.17,1.52-3.05,1.98-5.03,.46-1.99,.93-4.04,2.13-5.62,1.13-1.49,2.92-2.46,4.65-3.4,1.85-1.01,3.6-1.96,4.5-3.42,.83-1.36,.88-3.28,.93-5.32,.05-2.04,.1-4.14,.96-5.93,.8-1.68,2.36-2.99,3.87-4.25,1.61-1.36,3.14-2.64,3.73-4.26,.43-1.19,0-2.83-.43-4.41-.45-1.69-.91-3.43-.48-4.99,.45-1.65,1.78-2.95,3.06-4.21,1.18-1.16,2.3-2.26,2.52-3.41,.24-1.24-.45-2.79-1.12-4.29-.71-1.59-1.44-3.24-1.27-4.85,.19-1.71,1.29-3.2,2.36-4.65,.98-1.33,1.91-2.59,1.95-3.75,.04-1.27-.88-2.7-1.77-4.08-.95-1.46-1.93-2.98-2-4.59-.08-1.73,.8-3.39,1.64-4.99,.77-1.45,1.49-2.83,1.35-3.97-.15-1.28-1.28-2.57-2.37-3.81-1.15-1.3-2.33-2.65-2.63-4.22-.34-1.75,.3-3.54,.92-5.28,.54-1.52,1.05-2.96,.77-4.02-.35-1.33-1.68-2.47-2.97-3.58-1.27-1.09-2.58-2.22-3.07-3.64-3.29-.6-7.05-1.42-9.61-2.85,6.2,12.48,9.86,26.4,10.65,40.67,1.35,24.33-5.3,47.97-18.72,66.56-13.07,18.12-31.38,29.22-50.22,30.46-2.64,.17-5.27,.16-7.9-.05,7.89,2.1,15.97,2.89,24.17,2.35,.11,0,.23-.02,.34-.03,.2-.29,.39-.58,.58-.87,1.15-1.75,2.34-3.56,4.1-4.65Z"/><path class="d" d="M402.55,442.61c-.7-10.63-2.85-20.97-6.41-30.74-1.37-.17-2.67-.33-3.92-.49,1.25,1.14,2.37,2.37,2.79,3.96,.47,1.76-.23,3.71-.9,5.59-.59,1.67-1.21,3.39-.94,4.79,.23,1.2,1.31,2.42,2.45,3.72,1.4,1.59,2.85,3.24,3.09,5.26,.22,1.86-.76,3.72-1.7,5.51-.81,1.54-1.65,3.13-1.58,4.51,.06,1.25,.95,2.63,1.89,4.09,1.14,1.77,2.33,3.6,2.27,5.61-.06,1.89-1.31,3.59-2.53,5.24-1.03,1.39-2.09,2.82-2.24,4.18-.14,1.25,.53,2.76,1.24,4.35,.86,1.92,1.74,3.91,1.37,5.87-.36,1.87-1.87,3.35-3.33,4.79-1.23,1.21-2.5,2.45-2.86,3.76-.33,1.22,.09,2.81,.53,4.49,.54,2.04,1.1,4.14,.42,6.02-.83,2.28-2.79,3.93-4.69,5.53-1.57,1.32-3.06,2.57-3.76,4.05-.77,1.6-.82,3.71-.87,5.75-.04,1.56-.08,3.15-.43,4.61,14.06-18.68,21.88-43.63,20.12-70.45Z"/><path d="M508.49,234.44l-20.21,1.33c-.28,.02-.55,.17-.71,.4l-14.78,21.63c-.07,.1-.1,.2-.13,.31-11.81-6.51-38.52-5.31-64.96-3.52l-3.86,.29c-7.79,.5-14.58,1.14-20.51,1.79-16.22,1.93-26.22,4.43-32.22,7.15-7.57,3.43-8.93,7.29-8.72,10.72,.14,2.14,1.07,4.5,2.72,6.86,4.43,6.43,13.65,13.29,25.51,18.15,.29,.14,.64,.29,1,.36,9,3.57,19.43,5.86,30.37,5.86,5.36,.07,11.36,.21,17.65,.5,6.07,.21,12.29,.43,18.15,.43,5.36,0,10.43-.21,14.86-.79,1-.14,2.22-.86,3.65-2,7.21-5.79,18.72-23.22,20.93-32.94,1.6-6.87-.72-10.23-3.08-11.93,.06-.05,.14-.1,.19-.17l14.52-21.26,19.76-1.3c.51-.03,.9-.48,.87-.99-.03-.51-.48-.9-.99-.87Zm-56.46,66.9c-8.78,1.17-20.71,.72-32.24,.28-6.34-.24-12.33-.47-17.86-.44-30.73,.13-54.44-18.87-54.98-26.99-.27-4.08,6.8-11.41,57.15-14.72,1.22-.08,2.52-.17,3.89-.26,1.53-.1,3.14-.21,4.81-.32,19.87-1.31,48.69-2.71,58.59,3.85,1.7,1.13,2.19,3.46,1.43,6.94-2.53,11.67-18.17,31.25-20.79,31.67Z"/><path d="M328,270.63l-82.06,11.08c-.59,0-4.42,.13-9.21,2.51-4.67,2.31-11.17,7.3-15.65,17.91-.2,.47,.02,1.02,.49,1.22,.14,.06,.28,.08,.42,.07,.34-.02,.65-.23,.8-.57,4.24-10.04,10.31-14.74,14.67-16.92,4.72-2.36,8.49-2.36,8.53-2.36h.13l82.12-11.1c.51-.07,.87-.54,.8-1.05-.07-.51-.54-.86-1.05-.8Z"/><path d="M470.2,306.73l-58.05,5.26c-7.36,.67-13.21,6.24-14.23,13.56l-2.07,14.83c-.07,.51,.28,.98,.79,1.05,.06,0,.13,.01,.19,0,.43-.03,.8-.35,.86-.8l2.07-14.83c.9-6.46,6.07-11.38,12.56-11.97l58.05-5.26c.51-.05,.89-.5,.84-1.01-.05-.51-.48-.91-1.01-.84Z"/><path d="M99.91,329.94c.06,0,.13,0,.19-.02l27.73-3.05c2.38-.26,4.1-2.4,3.84-4.78-.26-2.38-2.41-4.1-4.78-3.84l-27.73,3.05c-2.38,.26-4.1,2.4-3.84,4.78,.25,2.32,2.29,4,4.59,3.85Z"/></svg>