<?xml version="1.0" encoding="UTF-8"?><svg xmlns="http://www.w3.org/2000/svg" viewBox="0 0 140.94 207.48"><defs><style>.d{fill:none;}.e{fill:#fff;}.f{fill:#191919;}.g{fill:#353535;}.h{fill:#7aeded;}</style></defs><g id="a"/><g id="b"><g id="c"><g><path class="d" d="M61.17,3.68c-.23-.25-.55-.38-.95-.38s-.73,.13-.97,.38c-.24,.26-.39,.63-.44,1.12h2.72c0-.49-.13-.87-.36-1.12Z"/><path class="d" d="M67.57,3.68c-.23-.25-.55-.38-.95-.38s-.73,.13-.97,.38c-.24,.26-.39,.63-.44,1.12h2.72c0-.49-.13-.87-.36-1.12Z"/><path class="d" d="M23.26,7.5c1.01,0,1.52-.69,1.52-2.07s-.51-2.05-1.53-2.05c-.53,0-.92,.18-1.16,.53s-.36,.86-.36,1.52c0,1.38,.51,2.07,1.53,2.07Z"/><path class="d" d="M40.01,7.56c.46,0,.83-.13,1.11-.39,.28-.26,.42-.62,.42-1.09v-.52l-.77,.03c-.6,.02-1.04,.12-1.31,.3-.27,.18-.41,.45-.41,.82,0,.27,.08,.47,.24,.62,.16,.15,.4,.22,.71,.22Z"/><path class="d" d="M103.36,7.5c.45,0,.79-.18,1.03-.54,.23-.36,.35-.87,.35-1.55,0-1.36-.47-2.04-1.4-2.04-.51,0-.88,.15-1.11,.45-.23,.3-.34,.81-.35,1.51v.09c0,.73,.12,1.26,.35,1.58,.23,.33,.61,.49,1.13,.49Z"/><path class="d" d="M10.7,7.56c.46,0,.83-.13,1.11-.39s.42-.62,.42-1.09v-.52l-.77,.03c-.6,.02-1.04,.12-1.31,.3-.27,.18-.41,.45-.41,.82,0,.27,.08,.47,.24,.62,.16,.15,.4,.22,.71,.22Z"/><path class="d" d="M109.37,7.56c.46,0,.83-.13,1.11-.39,.28-.26,.42-.62,.42-1.09v-.52l-.77,.03c-.6,.02-1.04,.12-1.31,.3-.27,.18-.41,.45-.41,.82,0,.27,.08,.47,.24,.62,.16,.15,.4,.22,.71,.22Z"/><path class="d" d="M73.37,7.5c.44,0,.78-.18,1.02-.54,.24-.36,.36-.88,.36-1.54s-.12-1.18-.35-1.52c-.24-.34-.58-.52-1.04-.52-.51,0-.87,.15-1.11,.44-.23,.3-.35,.77-.35,1.42v.19c0,.73,.12,1.26,.35,1.58,.23,.33,.61,.49,1.13,.49Z"/><path class="e" d="M45,101.3c3.45-.35,10.17-.74,15.14-.75l.97-1.6c-6.48-12.75-13.28-26.14-14.29-28.11l-19.04,33.74c4.81-1.28,13.05-2.86,17.23-3.28Z"/><path class="e" d="M70.5,90.56l-5.11,10.19c3.18,.26,7.74,.79,11.54,1.25l-6.44-11.44Z"/><path class="e" d="M9.96,126.02c.71-2.38,3.96-12.97,6.73-15.96,.6-.65,1.49-1.3,2.52-1.91-2.73-2.43-6.13-5.46-8.37-7.46L1.95,115.12v9.13c0,1.24,.09,2.48,.18,3.72,.03,.46,.06,.92,.1,1.38-.04-.45-.07-.91-.1-1.36,3.56-.89,6.68-1.67,7.82-1.96Z"/><path class="e" d="M112.9,85.34c-.14-.25-8.28-15.75-12.4-23.61-1.4,4.72-7.76,26.19-12.97,43.8l6.12,3.31,1.31,.11c1.18-.12,2.37-.25,3.55-.36,.05,0,.1,0,.15,0l25.28,2.06v-26.23l-6.24-10.84c-1.52,3.72-4.2,10.28-4.8,11.76Z"/><path class="e" d="M105.91,154.29l-20.71,2.29c-1.05,3.71-3.12,6.9-5.85,9.15-.02,.05-.07,.09-.13,.1-1.24,1-2.6,1.79-4.08,2.35-.03,.02-.05,.04-.08,.05,0,0-.02,0-.03,0-1.22,.46-2.51,.76-3.85,.86,0,0-.01,0-.02,0,0,0-.01,0-.02,0-.04,0-.09,.01-.13,.02-.98,.06-1.96,0-2.92-.13-.03,0-.06,0-.08,.01-.24,.02-.48,.02-.72,.02-1.09,0-2.17-.16-3.23-.49-.01,0-.02,0-.03-.01-2.47-.76-4.68-2.37-6.47-4.54-1.38,2.74-4.25,4.72-7.68,4.95-5.03,.33-9.36-3.24-9.67-7.98v-.03c-.1-1.54-1.4-2.72-2.93-2.58l-22.4,1.91c2.82,3.51,6.04,6.72,9.64,9.51l38.42,29.84,38.42-29.84c3.4-2.64,6.46-5.63,9.16-8.89-2.08-1.71-3.7-3.97-4.61-6.58Z"/><path d="M22.08,174.85l-2.2,1.72c-.13,.1-.3,.24-.51,.41-.2,.17-.37,.32-.5,.45,.1-.16,.21-.35,.33-.58,.12-.23,.21-.4,.27-.52l1.18-2.62-.78-.63-2.31,1.71c-.13,.09-.3,.22-.5,.4-.21,.18-.36,.32-.45,.41,.19-.32,.4-.71,.63-1.17l1.21-2.51-.81-.65-2.13,4.67,.93,.75,2.16-1.61c.1-.07,.25-.2,.46-.37,.21-.18,.36-.31,.45-.4-.06,.08-.15,.26-.29,.52-.14,.26-.22,.44-.26,.53l-1.11,2.46,.93,.75,4.1-3.08-.81-.65Z"/><path d="M24.18,180.32c.24-.31,.4-.64,.46-.96s.03-.64-.09-.93c-.12-.3-.33-.56-.62-.78-.46-.36-.93-.5-1.4-.43-.47,.07-.89,.35-1.27,.85-.24,.32-.4,.64-.47,.96-.07,.33-.04,.64,.09,.94s.33,.56,.62,.78c.46,.36,.93,.5,1.4,.42,.47-.08,.9-.36,1.28-.85Zm-.84-.65c-.23,.3-.46,.49-.67,.56-.21,.08-.43,.03-.65-.14-.22-.17-.32-.37-.3-.6,.02-.23,.15-.49,.38-.79,.23-.3,.45-.48,.67-.56,.21-.07,.43-.02,.64,.15,.22,.17,.32,.37,.3,.59-.02,.22-.14,.48-.37,.78Z"/><path d="M30.15,182.89c-.04-.31-.23-.6-.57-.86-.2-.15-.4-.25-.62-.3-.22-.04-.42-.03-.61,.05l-.07-.06c.07-.42-.12-.8-.57-1.15-.2-.15-.4-.25-.61-.29-.21-.04-.41-.02-.6,.05l-.05-.04,.19-.47-.63-.49-2.33,3,.82,.64,1.1-1.41c.27-.35,.52-.57,.73-.65,.21-.08,.43-.04,.64,.12,.16,.12,.23,.26,.22,.43-.01,.16-.1,.36-.27,.57l-1.36,1.75,.82,.64,1.17-1.51c.24-.31,.47-.5,.68-.57,.21-.07,.42-.02,.62,.13,.16,.12,.23,.26,.22,.43-.01,.16-.1,.35-.27,.57l-1.36,1.75,.82,.64,1.52-1.96c.3-.38,.43-.73,.39-1.04Z"/><path d="M33.41,185.42c-.08-.34-.32-.67-.72-.98-.42-.33-.87-.53-1.36-.62l-.16,.76c.44,.11,.77,.25,1.01,.44,.31,.24,.35,.52,.11,.82l-.1,.13-.53-.39c-.46-.33-.86-.51-1.2-.53-.34-.02-.63,.13-.88,.45-.24,.3-.34,.6-.3,.9,.04,.29,.2,.55,.49,.78,.23,.18,.45,.3,.65,.34,.2,.05,.43,.04,.71-.03l.02,.02-.16,.53,.57,.44,1.55-2c.28-.36,.38-.71,.3-1.05Zm-1.78,1.28c-.14,.18-.31,.28-.51,.3-.2,.02-.39-.04-.58-.19-.26-.21-.31-.42-.13-.66,.13-.16,.28-.24,.45-.22,.18,.01,.39,.11,.63,.28l.33,.24-.19,.25Z"/><path d="M36.49,187.39c-.2-.16-.42-.26-.63-.31-.22-.05-.43-.04-.63,.04l-.05-.04,.19-.47-.63-.49-2.33,3,.82,.64,1.1-1.41c.28-.35,.52-.57,.74-.64,.22-.07,.45-.02,.68,.16,.17,.13,.25,.28,.24,.45,0,.17-.09,.36-.26,.58l-1.36,1.75,.82,.64,1.52-1.96c.28-.36,.4-.7,.36-1.03-.03-.33-.23-.63-.57-.9Z"/><path d="M43.29,192.02c-.05-.6-.38-1.13-.98-1.6-.6-.47-1.2-.66-1.79-.56-.59,.09-1.14,.47-1.65,1.12-.51,.65-.74,1.28-.68,1.88,.05,.6,.38,1.13,.98,1.6,.6,.47,1.2,.65,1.79,.55,.59-.1,1.14-.47,1.65-1.12,.51-.65,.73-1.28,.68-1.87Zm-1.56,1.19c-.69,.88-1.36,1.07-2.02,.55-.33-.26-.49-.56-.49-.91,0-.35,.18-.75,.52-1.19,.34-.44,.68-.7,1.02-.8,.34-.09,.68,0,1.01,.25,.66,.51,.65,1.21-.04,2.1Z"/><path d="M47.58,196.1l-1.39,1.05c-.08,.07-.23,.19-.44,.39-.22,.19-.38,.35-.5,.46h-.02c.04-.06,.08-.14,.14-.23,.05-.09,.11-.19,.16-.29,.05-.1,.1-.19,.15-.28,.04-.09,.08-.16,.1-.2l.77-1.71-.9-.7-1.49,1.15-.22,.2c-.28,.25-.48,.44-.6,.57h-.02c.27-.48,.47-.85,.6-1.13l.69-1.6-.82-.63-1.48,3.67,.88,.68,2.39-1.95h.02l-.72,1.58-.58,1.23,.89,.69,3.2-2.33-.8-.62Z"/><path d="M51.2,199.27c-.03-.33-.23-.63-.57-.9-.2-.16-.42-.26-.63-.31s-.43-.04-.63,.04l-.05-.04,.19-.47-.63-.49-2.33,3,.82,.64,1.1-1.41c.28-.35,.52-.57,.74-.64,.22-.07,.45-.02,.68,.16,.17,.13,.25,.28,.24,.45,0,.17-.09,.36-.26,.58l-1.36,1.75,.82,.64,1.52-1.96c.28-.36,.4-.7,.36-1.03Z"/><path d="M53.75,203.62l.31-.4c.33-.43,.47-.85,.42-1.28-.05-.43-.28-.8-.71-1.13-.44-.35-.9-.48-1.36-.4-.47,.08-.89,.37-1.28,.87-.38,.49-.54,.97-.47,1.45s.34,.9,.82,1.28c.23,.18,.45,.32,.64,.41,.19,.09,.38,.16,.58,.2l.49-.63c-.24-.05-.45-.12-.64-.21-.19-.09-.38-.2-.56-.34-.23-.18-.36-.39-.39-.62-.03-.23,.04-.47,.22-.71l1.94,1.5Zm-.96-2.37c.18-.03,.36,.02,.54,.15,.17,.14,.27,.3,.29,.49,.02,.19-.05,.39-.21,.59l-1.15-.89c.17-.19,.35-.3,.53-.34Z"/><path d="M57.71,203.62c-.14,.18-.27,.39-.4,.65l-.03-.02c.03-.45-.15-.82-.52-1.11-.36-.28-.75-.36-1.17-.25-.42,.12-.82,.42-1.2,.91-.38,.49-.57,.94-.58,1.37-.01,.43,.16,.78,.51,1.06,.38,.3,.78,.37,1.2,.22l.03,.03-.14,.51,.63,.49,3.25-4.18-.82-.64-.75,.96Zm-1.28,1.77l-.07,.09c-.24,.28-.45,.45-.64,.5-.19,.05-.39-.01-.6-.18-.19-.15-.28-.33-.27-.56s.13-.49,.36-.78c.23-.3,.45-.48,.68-.56,.22-.08,.42-.04,.61,.1,.22,.17,.33,.37,.32,.59,0,.22-.14,.49-.39,.81Z"/><path d="M75.16,200.57c-.27-.07-.66-.05-1.16,.06-.38,.08-.63,.13-.74,.13-.11,0-.21,0-.29-.03-.08-.03-.14-.08-.2-.15-.09-.12-.12-.25-.1-.39,.03-.14,.12-.27,.28-.39,.13-.1,.28-.19,.44-.26s.38-.15,.66-.22l-.23-.86c-.27,.07-.52,.15-.74,.25-.22,.1-.44,.22-.64,.38-.42,.32-.66,.67-.74,1.06-.08,.38,.01,.75,.28,1.09,.14,.18,.3,.32,.48,.4,.18,.08,.37,.13,.57,.14,.2,.01,.46-.02,.79-.09,.35-.08,.59-.12,.72-.13,.13,0,.23,0,.32,.03,.09,.03,.16,.08,.22,.16,.11,.14,.14,.28,.1,.43-.04,.15-.16,.29-.34,.43-.15,.12-.34,.22-.56,.32-.22,.09-.51,.19-.87,.27l.6,.77c.44-.09,.88-.3,1.3-.63,.45-.35,.73-.73,.83-1.13,.1-.4,0-.78-.27-1.13-.2-.26-.43-.42-.71-.49Z"/><path d="M75.16,197.94c.15-.12,.23-.24,.25-.37,.02-.13-.02-.26-.12-.38-.21-.27-.46-.28-.76-.05-.3,.23-.34,.48-.14,.75,.21,.27,.46,.29,.76,.06Z"/><rect x="76.1" y="197.92" width="1.04" height="3.8" transform="translate(-106.47 89.01) rotate(-37.84)"/><path d="M79.39,195.62c-.33-.05-.67,.06-1.02,.33-.2,.16-.36,.34-.46,.54-.1,.2-.14,.41-.12,.62l-.05,.04-.41-.3-.63,.49,2.33,3,.82-.64-1.1-1.41c-.28-.35-.42-.65-.44-.88-.02-.23,.09-.44,.32-.62,.17-.13,.33-.17,.49-.12,.16,.05,.33,.18,.49,.4l1.36,1.75,.82-.64-1.52-1.96c-.28-.36-.58-.56-.91-.61Z"/><path d="M83.86,195.52c-.1,.15-.23,.28-.39,.4-.43,.33-.87,.2-1.32-.38-.47-.61-.49-1.07-.07-1.4,.11-.09,.23-.16,.37-.21,.14-.05,.29-.1,.46-.15l-.25-.82c-.38,.08-.75,.25-1.09,.52-.47,.37-.73,.79-.78,1.25-.04,.47,.13,.96,.53,1.47,.8,1.03,1.66,1.18,2.6,.45,.21-.16,.36-.31,.47-.45,.11-.14,.2-.3,.27-.49l-.54-.7c-.06,.19-.15,.36-.25,.51Z"/><path d="M86.92,193.24c-.13,.16-.29,.31-.47,.45-.23,.18-.46,.26-.69,.23-.23-.03-.44-.16-.63-.38l1.94-1.5-.31-.4c-.33-.43-.71-.67-1.13-.73-.42-.06-.85,.08-1.27,.41-.44,.34-.68,.75-.72,1.22-.04,.47,.14,.96,.53,1.46,.38,.49,.81,.76,1.29,.82,.48,.06,.96-.1,1.44-.48,.23-.18,.42-.35,.56-.52,.14-.16,.25-.33,.33-.52l-.49-.63c-.11,.22-.23,.41-.37,.57Zm-2.39-.86c.01-.19,.11-.35,.28-.48,.17-.14,.35-.19,.54-.16,.19,.03,.36,.15,.52,.35l-1.15,.89c-.14-.21-.21-.41-.19-.6Z"/><path d="M90.45,190.36l-.03-.04,.14-.87c.1-.57,.15-.99,.15-1.26,0-.27-.02-.51-.08-.72-.06-.21-.16-.4-.3-.58-.16-.21-.36-.35-.59-.43-.23-.08-.47-.09-.73-.04-.26,.06-.51,.18-.75,.37-.19,.14-.34,.29-.46,.45-.12,.15-.22,.31-.29,.48s-.14,.41-.21,.72l.87,.18c.06-.25,.13-.47,.22-.65,.09-.18,.21-.33,.36-.45,.15-.11,.29-.16,.44-.15,.15,0,.28,.09,.4,.25,.08,.11,.14,.22,.18,.35,.04,.13,.06,.29,.06,.47,0,.18-.03,.54-.09,1.07l-.21,1.76,.45,.58,2.74-2.13-.54-.7-1.71,1.33Z"/><path d="M92.78,184.1c-.5-.16-.97-.07-1.43,.28-.47,.36-.68,.79-.65,1.3,.03,.5,.32,1.1,.85,1.79,.52,.66,1.02,1.08,1.52,1.24,.49,.16,.97,.07,1.42-.29,.47-.36,.69-.8,.65-1.3-.03-.5-.31-1.1-.85-1.78-.51-.66-1.02-1.08-1.52-1.24Zm1.19,3.66c-.2,.15-.42,.16-.66,.01-.25-.14-.55-.46-.93-.94-.37-.48-.6-.86-.68-1.14-.08-.28-.02-.49,.17-.64,.19-.15,.41-.15,.66,0,.25,.14,.56,.46,.94,.94,.37,.48,.59,.85,.67,1.13,.08,.28,.02,.49-.17,.64Z"/><path d="M94.56,181.99l-.48,1.99,.79,.19,.17-.71c.02-.08,.05-.25,.08-.49l.3,.42,.28,.38,1.76,2.27,.83-.65-3.05-3.93-.68,.53Z"/><path d="M99.47,179.39c-.32-.17-.64-.24-.96-.2-.32,.03-.63,.16-.92,.39-.41,.32-.64,.69-.69,1.12-.05,.43,.09,.86,.42,1.28,.3,.39,.64,.62,1.01,.68,.37,.07,.72-.03,1.06-.3,.2-.16,.35-.32,.43-.5,.08-.17,.11-.38,.08-.63l.03-.03c.22,.32,.36,.6,.4,.85,.04,.25,0,.48-.11,.7-.12,.22-.31,.44-.59,.65-.16,.13-.34,.23-.52,.31l.52,.67c.14-.07,.33-.19,.56-.37,.66-.51,1.01-1.09,1.04-1.72,.03-.63-.26-1.34-.86-2.11-.28-.36-.58-.62-.89-.79Zm-.35,2.16c-.18,.14-.36,.19-.53,.14-.17-.04-.33-.16-.48-.35-.17-.22-.26-.43-.25-.62,0-.19,.09-.36,.27-.49,.17-.13,.37-.17,.6-.11,.23,.06,.42,.2,.59,.41,.11,.14,.15,.32,.12,.52-.03,.2-.14,.37-.3,.5Z"/><path d="M50.83,50.61c-.09-.24-.22-.63-.38-1.15-.16-.52-.27-.9-.33-1.15-.16,.75-.4,1.56-.72,2.45l-1.2,3.47h3.88l-1.25-3.62Z"/><path d="M75.47,48.15c-1.3,0-2.29,.42-2.95,1.27-.66,.84-1,2.08-1,3.71s.33,2.88,.99,3.73c.66,.85,1.64,1.27,2.94,1.27s2.27-.42,2.93-1.26c.66-.84,.99-2.09,.99-3.74s-.33-2.87-.98-3.71c-.65-.84-1.63-1.27-2.92-1.27Z"/><path d="M19.47,28.96c-.65-.84-1.63-1.27-2.92-1.27s-2.29,.42-2.95,1.27c-.66,.84-1,2.08-1,3.71s.33,2.88,.99,3.73c.66,.85,1.64,1.27,2.94,1.27s2.27-.42,2.93-1.26c.66-.84,.99-2.09,.99-3.74s-.33-2.87-.98-3.71Z"/><path d="M76.54,32.23h1.51c1.01,0,1.75-.19,2.2-.56,.46-.38,.68-.93,.68-1.68s-.25-1.29-.74-1.62c-.49-.33-1.23-.49-2.22-.49h-1.44v4.35Z"/><path class="h" d="M22.76,32.68c0-2.17-.54-3.86-1.62-5.05-1.08-1.2-2.61-1.79-4.59-1.79s-3.56,.59-4.64,1.77c-1.08,1.18-1.63,2.87-1.63,5.06s.54,3.89,1.62,5.09c1.08,1.19,2.62,1.79,4.63,1.79s3.52-.6,4.6-1.8c1.08-1.2,1.63-2.89,1.63-5.05Zm-3.3,3.74c-.66,.84-1.63,1.26-2.93,1.26s-2.28-.42-2.94-1.27c-.66-.85-.99-2.09-.99-3.73s.33-2.87,1-3.71c.66-.84,1.65-1.27,2.95-1.27s2.27,.42,2.92,1.27c.65,.84,.98,2.08,.98,3.71s-.33,2.9-.99,3.74Z"/><polygon class="h" points="25.62 39.35 27.77 39.35 27.77 33.89 32.79 33.89 32.79 32.04 27.77 32.04 27.77 27.88 33.13 27.88 33.13 26.04 25.62 26.04 25.62 39.35"/><polygon class="h" points="35.54 39.35 37.7 39.35 37.7 33.89 42.72 33.89 42.72 32.04 37.7 32.04 37.7 27.88 43.05 27.88 43.05 26.04 35.54 26.04 35.54 39.35"/><path class="h" d="M53.61,31.7c.5,.63,1.35,1.19,2.57,1.68,1.18,.47,1.95,.88,2.33,1.23,.38,.35,.56,.77,.56,1.27,0,.55-.2,.99-.61,1.32-.41,.33-1.05,.49-1.91,.49-.59,0-1.22-.08-1.91-.25-.68-.16-1.33-.39-1.93-.67v2.06c.96,.47,2.19,.7,3.7,.7s2.69-.34,3.54-1.01c.86-.67,1.28-1.6,1.28-2.79,0-.6-.11-1.12-.32-1.57-.21-.44-.55-.84-1-1.19-.46-.35-1.17-.73-2.15-1.14-.87-.36-1.47-.65-1.8-.86-.33-.22-.57-.45-.72-.7-.15-.25-.22-.54-.22-.89,0-.5,.18-.91,.55-1.22,.36-.31,.9-.46,1.6-.46,.93,0,1.98,.25,3.17,.75l.69-1.78c-1.26-.56-2.53-.84-3.81-.84s-2.39,.32-3.18,.96c-.79,.64-1.18,1.51-1.18,2.62,0,.89,.25,1.65,.75,2.28Z"/><polygon class="h" points="66.23 39.35 68.41 39.35 68.41 27.91 72.32 27.91 72.32 26.04 62.31 26.04 62.31 27.91 66.23 27.91 66.23 39.35"/><path class="h" d="M74.36,39.35h2.18v-5.32h2.15l3.19,5.32h2.48l-3.76-5.89c1.72-.7,2.59-1.88,2.59-3.54,0-1.3-.41-2.27-1.24-2.91-.83-.64-2.1-.97-3.82-.97h-3.76v13.31Zm3.61-11.47c.99,0,1.73,.16,2.22,.49,.49,.33,.74,.87,.74,1.62s-.23,1.3-.68,1.68c-.46,.38-1.19,.56-2.2,.56h-1.51v-4.35h1.44Z"/><polygon class="h" points="86.28 39.35 93.81 39.35 93.81 37.5 88.45 37.5 88.45 33.32 93.47 33.32 93.47 31.5 88.45 31.5 88.45 27.88 93.81 27.88 93.81 26.04 86.28 26.04 86.28 39.35"/><polygon class="h" points="96.68 39.35 104.21 39.35 104.21 37.5 98.86 37.5 98.86 33.32 103.88 33.32 103.88 31.5 98.86 31.5 98.86 27.88 104.21 27.88 104.21 26.04 96.68 26.04 96.68 39.35"/><polygon class="h" points="109.51 39.35 111.69 39.35 111.69 27.91 115.6 27.91 115.6 26.04 105.6 26.04 105.6 27.91 109.51 27.91 109.51 39.35"/><polygon class="h" points="37.59 59.81 39.76 59.81 39.76 48.36 43.68 48.36 43.68 46.49 33.67 46.49 33.67 48.36 37.59 48.36 37.59 59.81"/><path class="h" d="M46.25,59.81l1.3-3.7h5.09l1.33,3.7h2.31l-4.98-13.37h-2.37l-4.98,13.37h2.29Zm3.14-9.04c.32-.89,.56-1.7,.72-2.45,.06,.24,.17,.63,.33,1.15,.16,.52,.29,.9,.38,1.15l1.25,3.62h-3.88l1.2-3.47Z"/><path class="h" d="M67,59.4v-1.87c-.57,.18-1.12,.32-1.65,.43-.53,.11-1.07,.17-1.64,.17-1.31,0-2.3-.42-2.99-1.26-.69-.84-1.03-2.07-1.03-3.71s.36-2.78,1.07-3.67c.72-.89,1.7-1.33,2.95-1.33,.55,0,1.08,.08,1.58,.24,.5,.16,.98,.35,1.42,.56l.78-1.81c-1.15-.57-2.41-.86-3.77-.86s-2.42,.28-3.38,.83c-.96,.55-1.69,1.35-2.2,2.39-.51,1.04-.76,2.25-.76,3.63,0,2.2,.52,3.89,1.57,5.07,1.04,1.18,2.54,1.77,4.49,1.77,1.32,0,2.51-.2,3.55-.59Z"/><path class="h" d="M81.68,53.13c0-2.17-.54-3.86-1.62-5.05-1.08-1.2-2.61-1.79-4.59-1.79s-3.56,.59-4.64,1.77c-1.08,1.18-1.63,2.87-1.63,5.06s.54,3.89,1.62,5.09c1.08,1.19,2.62,1.79,4.63,1.79s3.52-.6,4.6-1.8c1.08-1.2,1.63-2.89,1.63-5.05Zm-3.3,3.74c-.66,.84-1.63,1.26-2.93,1.26s-2.28-.42-2.94-1.27c-.66-.85-.99-2.09-.99-3.73s.33-2.87,1-3.71c.66-.84,1.65-1.27,2.95-1.27s2.27,.42,2.92,1.27c.65,.84,.98,2.08,.98,3.71s-.33,2.9-.99,3.74Z"/><path class="h" d="M90.9,53.43c-.46-.35-1.17-.73-2.15-1.14-.87-.36-1.47-.65-1.8-.86-.33-.22-.57-.45-.72-.7-.15-.25-.22-.54-.22-.89,0-.5,.18-.91,.55-1.22,.36-.31,.9-.46,1.6-.46,.93,0,1.98,.25,3.17,.75l.69-1.78c-1.26-.56-2.53-.84-3.81-.84s-2.39,.32-3.18,.96c-.79,.64-1.18,1.51-1.18,2.62,0,.89,.25,1.65,.75,2.28,.5,.63,1.35,1.19,2.57,1.68,1.18,.47,1.95,.88,2.33,1.23,.38,.35,.56,.77,.56,1.27,0,.55-.2,.99-.61,1.32-.41,.33-1.05,.49-1.91,.49-.59,0-1.22-.08-1.91-.25-.68-.16-1.33-.39-1.93-.67v2.06c.96,.47,2.19,.7,3.7,.7s2.69-.34,3.54-1.01c.86-.67,1.28-1.6,1.28-2.79,0-.6-.11-1.12-.32-1.57-.21-.44-.55-.84-1-1.19Z"/><path class="g" d="M8.79,150.59s0-.04-.01-.06c0-.04-.02-.08-.03-.12-.08-.29-.2-.65-.32-1.01-.12-.36-.24-.72-.32-1.02-.64-2.35-1.5-4.71-2.34-6.99l-.18-.49c-.46-1.26-.91-2.35-1.75-2.95-.04-.03-.08-.04-.12-.07,1.12,4.43,2.77,8.69,4.87,12.72,.07,0,.15,.01,.19,.01v-.04Z"/><path class="h" d="M7.16,140.34l.18,.49c.84,2.31,1.72,4.7,2.38,7.12,.08,.27,.19,.61,.3,.94,.13,.39,.26,.78,.34,1.1,.02,.06,.03,.13,.05,.19v.03c.15,.67,.05,1.2-.3,1.58-.04,.04-.08,.08-.12,.12l1.79,1.92,1.27-.15c-1.08-1.65-1.84-3.5-2.17-5.42-.29-1.68-.27-3.39,.06-5.08-.92-2.86-1.4-5.83-1.42-8.83-.02-2.25,.24-4.49,.74-6.68-1.26,.32-4.41,1.11-7.96,2,.22,2.11,.56,4.2,1.01,6.26,.57,.15,1.09,.37,1.53,.68,1.33,.95,1.92,2.56,2.35,3.73Z"/><path class="h" d="M104.5,129.99l-5.61-6.4c-.22-.25-.27-.61-.12-.91l5.09-10.44c.14-.29,.43-.47,.75-.47h0l13.55,.07-19.56-1.59c-7.09,.67-14.24,1.48-21.35,2.42,.78,.15,1.46,.32,2.04,.52,1.68,.59,1.87,1.21,1.89,1.28,.02,.09-.04,.19-.13,.21h-.03c-.08,0-.16-.04-.18-.13,0-.02-.42-1.12-4.8-1.73-2.3,.31-4.6,.63-6.89,.97-4.8,.71-9.66,1.49-14.45,2.32-.41,.08-.82-.18-.94-.58,0-.02-.01-.04-.02-.06l-2.44,.21c-.9,2.92-1.53,5.93-1.86,8.94-.53,4.79-.34,9.62,.56,14.41,0-.45,.02-.86,.03-1.15,.13-2.99,1.14-10.01,3.46-12.65,1.85-2.12,5.45-2.68,7.59-3.02l.55-.09c.36-.06,.76-.14,1.19-.23,2.46-.49,6.18-1.24,9.11,.57,3.08,1.9,6.49,10.08,8.25,14.79,.33,.89,.02,1.89-.75,2.43l-1.16,.81c.31,.5,.58,.86,.79,1.11l2.68-3.11,.2-13.01c0-.1,.08-.17,.18-.17,.1,0,.17,.08,.17,.18l-.2,13.08s-.02,.08-.04,.11l-2.73,3.17c.39,.23,1.39,.4,1.8,.48,.13,.02,.25,.04,.36,.06,.56,.11,1.71,.27,3.16,.45,4.14,.5,9.2,.94,10.43,.76,1.37-.21,4.08-1.74,5.4-2.87,.78-.67,1.28-1.87,1.76-3.04,.38-.93,.75-1.82,1.28-2.47-.15,.02-.24,.03-.27,.03-1.12,.7-2.72,1.57-3.67,1.6l-3.53,.33c-.42,.04-.84,.02-1.24-.05l-3.51-.59c-.07-.01-.13-.02-.19-.02-2.05-.2-3.8-2.1-3.94-4.24l-.03-.47c-.14-2.15,1.49-4.01,3.63-4.15l7.59-.22c.58-.02,1.13,.25,1.47,.71,1.08,1.45,3.31,2.02,4.01,2.11,.03,0,.06,0,.09,.02,4.51,.24,8.73,.15,13.19,.04,1.84-.04,3.73-.09,5.75-.11,1.88-.02,4.32-.21,6.67-.39,1.96-.15,3.82-.29,5.35-.35,.03-.18,.06-.35,.09-.5l-29.79,1.3c-.25,.02-.49-.09-.66-.28Zm-32.73-12.1l-15.27,2.06h-.02s-.71,0-1.59,.44c-.81,.41-1.94,1.28-2.73,3.15-.03,.06-.08,.1-.15,.11-.03,0-.05,0-.08-.01-.09-.04-.13-.14-.09-.23,.83-1.97,2.04-2.9,2.91-3.33,.89-.44,1.6-.46,1.71-.47l15.26-2.06c.09-.01,.18,.05,.19,.15,.01,.09-.05,.18-.15,.19Zm6.05,4.31c-1.66-.95-3.47-2.48-3.57-3.92-.11-1.71,2.18-2.44,3.91-2.84,1.84-.43,4.42-.75,7.66-.96l.72-.05c4.94-.34,9.92-.55,12.16,.68l2.71-3.96s.08-.07,.13-.07l3.76-.25c.1,0,.18,.07,.18,.16,0,.1-.07,.18-.16,.18l-3.68,.24-2.65,3.87c.47,.33,.94,1.01,.63,2.36-.52,2.25-3.51,6.45-4.7,6.61-.83,.11-1.78,.15-2.79,.15-1.09,0-2.25-.04-3.38-.09-1.17-.04-2.28-.08-3.28-.08h-.06c-3.52,0-6.27-1.27-7.6-2.04Zm20.39,2.41l-10.8,.98c-1.21,.11-2.17,1.02-2.34,2.23l-.39,2.76c-.01,.08-.08,.14-.16,.15-.01,0-.02,0-.04,0-.09-.01-.16-.1-.15-.2l.39-2.76c.19-1.36,1.28-2.4,2.65-2.52l10.8-.98c.1-.01,.18,.06,.19,.16s-.06,.18-.16,.19Z"/><path class="h" d="M136.47,126.51c.36-.11,.88-.18,1.67-.16,.16,0,.38,.04,.61,.09-.09-.51-.19-.94-.32-1.24-.07-.12-.4-.43-.59-.54-.2-.12-.69-.37-1.16-.59l-.22,2.44Z"/><path class="h" d="M28.4,140.07c-.57-2.81-.95-5.69-1.12-8.55-.16-2.68-.13-5.38,.07-8.06-.66,.12-1.45,.3-2.3,.48-2.68,.58-5.72,1.24-7.65,1.14-.78-.04-2.95-.66-3.45-1.86-.5-1.19,.87-5.95,2.22-9.27-2.37,4.77-4.73,12.9-4.76,13-.08,.28-.31,.5-.6,.57l-.21,.05c-.52,2.22-.79,4.49-.77,6.77,.02,2.93,.49,5.83,1.38,8.62l17.18-2.89Zm-15.91-10.13l2.86-.42c.44-.06,.85,.24,.91,.68,.06,.44-.24,.85-.68,.91l-2.86,.42s-.04,0-.06,0c-.42,.03-.79-.27-.85-.69-.06-.44,.24-.85,.68-.91Z"/><path class="h" d="M49.99,140.79c-1.19-5.37-1.5-10.81-.9-16.19,.34-3.08,.99-6.14,1.91-9.12,.02-.07,.08-.11,.15-.12l2.48-.22c-.62-2-1.48-3.92-2.56-5.71-1.26-2.08-2.8-3.97-4.59-5.63-.24-.22-.33-.57-.22-.88,0-.03,.02-.06,.03-.08-.39,.04-.77,.07-1.12,.11-4.61,.47-13.57,2.28-17.67,3.43-2.13,.6-5.44,1.97-7.69,3.36,4.32-1.78,13.7-4.45,13.81-4.48l.42-.11c2.2-.57,5.89-1.51,7.91-1.04,1.34,.31,2.82,.93,4.58,3.39,1.04,1.45,4.18,7.49,4.07,8.47-.13,1.22-2.42,3.43-3.77,3.64-3.14,.5-7.17,1.35-11.05,2.17-3.04,.64-5.92,1.25-8.06,1.62h-.02c-.2,2.7-.23,5.42-.07,8.11,.17,2.85,.55,5.71,1.12,8.51l18.08-3.04c.08-.01,.16,.03,.19,.11l1.18,3.04c.03,.09,0,.19-.1,.22-.09,.03-.19,0-.22-.1l-1.13-2.91-17.99,3.03c-.51,2.11-.56,4.33-.12,6.45,.35,1.72,1.02,3.33,1.94,4.81l20.85-2.43c-.64-2.1-1.03-3.56-1.16-4.36-.18-1.04-.25-2.61-.26-4.05Zm-15.5-12.77l-5.16,.57h-.04c-.43,.03-.81-.28-.85-.71-.05-.44,.27-.84,.71-.89l5.16-.57c.44-.05,.84,.27,.89,.71,.05,.44-.27,.84-.71,.89Z"/><path class="h" d="M28.39,140.42l-17.14,2.88c-.3,1.62-.32,3.27-.05,4.88,.33,1.93,1.1,3.79,2.21,5.43l16.77-1.96c-.9-1.48-1.55-3.08-1.9-4.78-.44-2.12-.4-4.34,.09-6.46Z"/><path d="M123.93,111.9v-1.25l-25.28-2.06s-.1,0-.15,0c-1.18,.11-2.37,.24-3.55,.36l-1.31-.11-6.12-3.31c5.21-17.6,11.57-39.08,12.97-43.8,4.13,7.86,12.26,23.36,12.4,23.61,.6-1.48,3.28-8.04,4.8-11.76l6.24,10.84V15.3H1.95V115.12l8.88-14.43c2.25,2,5.64,5.03,8.37,7.46-1.02,.61-1.92,1.26-2.52,1.91-2.77,2.99-6.02,13.58-6.73,15.96-1.14,.29-4.27,1.07-7.82,1.96,.03,.45,.06,.91,.1,1.36,.01,.11,.03,.21,.04,.32,3.55-.89,6.7-1.68,7.96-2-.5,2.19-.75,4.43-.74,6.68,.02,3,.5,5.97,1.42,8.83-.32,1.69-.34,3.4-.06,5.08,.33,1.92,1.09,3.77,2.17,5.42l-1.27,.15-1.79-1.92s.08-.07,.12-.12c.35-.38,.45-.91,.31-1.58v-.03c-.02-.07-.04-.13-.05-.19-.09-.32-.22-.71-.34-1.1-.11-.33-.22-.66-.3-.94-.66-2.42-1.53-4.81-2.38-7.12l-.18-.49c-.43-1.17-1.01-2.78-2.35-3.73-.44-.31-.96-.53-1.53-.68,.14,.66,.29,1.32,.45,1.97,.04,.02,.08,.04,.12,.07,.84,.6,1.29,1.69,1.75,2.95l.18,.49c.83,2.28,1.69,4.63,2.34,6.99,.08,.3,.2,.66,.32,1.02,.12,.36,.24,.72,.32,1.01,0,.04,.02,.08,.03,.12,0,.02,0,.04,.01,.06v.04s-.12,0-.19-.01c.57,1.08,1.16,2.15,1.79,3.2l.6,.64c-.01,.07-.03,.14-.04,.22v.04c.08,.14,.18,.28,.27,.42,.02-.12,.04-.24,.07-.37l.03,.03s.09,.06,.15,.05l1.12-.13c.04,.16,.07,.3,.09,.43v.02c.18,.86,.3,1.76,.39,2.68,.59,.81,1.19,1.61,1.82,2.39l22.4-1.91c1.53-.13,2.83,1.05,2.93,2.58v.03c.31,4.74,4.64,8.31,9.68,7.98,3.43-.23,6.3-2.21,7.68-4.95,1.79,2.17,4,3.78,6.47,4.54,.01,0,.02,0,.03,.01,1.06,.32,2.15,.49,3.23,.49,.24,0,.48,0,.72-.02,.03,0,.06,0,.08-.01,.96,.14,1.94,.19,2.92,.13,.04,0,.09-.01,.13-.02,0,0,.01,0,.02,0,0,0,.01,0,.02,0,1.34-.1,2.63-.41,3.85-.86,0,0,.02,0,.03,0,.03,0,.05-.03,.08-.05,1.47-.56,2.84-1.36,4.08-2.35,.06,0,.1-.05,.13-.1,2.73-2.24,4.79-5.43,5.85-9.15l20.71-2.29c.91,2.61,2.53,4.87,4.61,6.58,6.52-7.87,10.9-17.34,12.62-27.6l2.73,.46c-1.78,10.66-6.3,20.51-13.04,28.71,2.42,1.33,5.23,2.01,8.18,1.81,8.24-.54,14.48-7.64,13.94-15.85-.1-1.54-.43-3.01-.96-4.38l.65-.41c.04,.08,.07,.17,.13,.24,.25,.3,.63,.48,1.01,.44,.26-.02,.5-.12,.71-.29,.64-.55,2.5-2.32,3.12-3.25,.62-.94,1.19-2.98,1.31-3.98,.09-.77-.03-2.8-.06-3.15,0-.83,0-6.96-.89-9.05-.24-.58-.98-1.16-1.28-1.33-.32-.19-1.05-.55-1.5-.76,.49-1.17,.71-2.52,.53-3.6-.37-2.17-1.05-3.31-3.61-3.16-.15-.43-.23-.7-.23-.7-.04-.12-.1-.23-.19-.32l-3.08-3.29c-.14-.15-.33-.24-.54-.26l-3.36-.27v1.03h-2.77Zm-33-52.92c-.86,.67-2.04,1.01-3.54,1.01s-2.74-.23-3.7-.7v-2.06c.61,.29,1.25,.51,1.93,.67,.68,.16,1.32,.25,1.91,.25,.86,0,1.5-.16,1.91-.49,.41-.33,.61-.77,.61-1.32,0-.5-.19-.92-.56-1.27-.38-.35-1.15-.76-2.33-1.23-1.21-.49-2.07-1.05-2.57-1.68-.5-.63-.75-1.39-.75-2.28,0-1.11,.39-1.98,1.18-2.62,.79-.64,1.85-.96,3.18-.96s2.54,.28,3.81,.84l-.69,1.78c-1.18-.5-2.24-.75-3.17-.75-.7,0-1.24,.15-1.6,.46-.36,.31-.55,.71-.55,1.22,0,.35,.07,.64,.22,.89,.15,.25,.39,.48,.72,.7,.33,.22,.93,.51,1.8,.86,.98,.41,1.69,.79,2.15,1.14,.46,.35,.79,.75,1,1.19,.21,.44,.32,.97,.32,1.57,0,1.18-.43,2.11-1.28,2.79Zm14.67-32.94h10.01v1.87h-3.92v11.44h-2.18v-11.44h-3.92v-1.87Zm-1.38,0v1.84h-5.35v3.62h5.02v1.82h-5.02v4.18h5.35v1.85h-7.53v-13.31h7.53Zm-10.41,0v1.84h-5.35v3.62h5.02v1.82h-5.02v4.18h5.35v1.85h-7.53v-13.31h7.53Zm-15.69,0c1.72,0,2.99,.32,3.82,.97,.83,.64,1.24,1.61,1.24,2.91,0,1.66-.86,2.84-2.59,3.54l3.76,5.89h-2.48l-3.19-5.32h-2.15v5.32h-2.18v-13.31h3.76Zm-44.45,20.45h10.01v1.87h-3.92v11.44h-2.18v-11.44h-3.92v-1.87Zm17.64-.05l4.98,13.37h-2.31l-1.33-3.7h-5.09l-1.3,3.7h-2.29l4.98-13.37h2.37Zm-4.49,24.4c1,1.97,7.8,15.35,14.29,28.11l-.97,1.6c-4.96,.01-11.69,.4-15.14,.75-4.18,.42-12.41,2-17.23,3.28l19.04-33.74Zm12.14-12.62c-1.04-1.18-1.57-2.87-1.57-5.07,0-1.38,.25-2.59,.76-3.63,.51-1.04,1.24-1.83,2.2-2.39,.96-.55,2.08-.83,3.38-.83,1.36,0,2.62,.29,3.77,.86l-.78,1.81c-.45-.21-.92-.4-1.42-.56-.5-.16-1.03-.24-1.58-.24-1.25,0-2.23,.44-2.95,1.33-.72,.89-1.07,2.11-1.07,3.67s.34,2.87,1.03,3.71c.69,.84,1.69,1.26,2.99,1.26,.56,0,1.11-.06,1.64-.17,.53-.11,1.08-.26,1.65-.43v1.87c-1.04,.39-2.23,.59-3.55,.59-1.95,0-3.44-.59-4.49-1.77Zm11.55,32.34l6.44,11.44c-3.8-.46-8.36-.98-11.54-1.25l5.11-10.19Zm4.95-30.57c-2.01,0-3.55-.6-4.63-1.79-1.08-1.19-1.62-2.89-1.62-5.09s.54-3.88,1.63-5.06c1.08-1.18,2.63-1.77,4.64-1.77s3.51,.6,4.59,1.79c1.08,1.2,1.62,2.88,1.62,5.05s-.54,3.85-1.63,5.05c-1.08,1.2-2.62,1.8-4.6,1.8Zm-13.14-33.95h10.01v1.87h-3.92v11.44h-2.18v-11.44h-3.92v-1.87Zm-8.27,.76c.79-.64,1.85-.96,3.18-.96s2.54,.28,3.81,.84l-.69,1.78c-1.18-.5-2.24-.75-3.17-.75-.7,0-1.24,.15-1.6,.46-.36,.31-.55,.71-.55,1.22,0,.35,.07,.64,.22,.89,.15,.25,.39,.48,.72,.7,.33,.22,.93,.51,1.8,.86,.98,.41,1.69,.79,2.15,1.14,.46,.35,.79,.75,1,1.19,.21,.44,.32,.97,.32,1.57,0,1.18-.43,2.11-1.28,2.79-.86,.67-2.04,1.01-3.54,1.01s-2.74-.23-3.7-.7v-2.06c.61,.29,1.25,.51,1.93,.67,.68,.16,1.32,.25,1.91,.25,.86,0,1.5-.16,1.91-.49,.41-.33,.61-.77,.61-1.32,0-.5-.19-.92-.56-1.27-.38-.35-1.15-.76-2.33-1.23-1.21-.49-2.07-1.05-2.57-1.68-.5-.63-.75-1.39-.75-2.28,0-1.11,.39-1.98,1.18-2.62Zm-10.99-.76v1.84h-5.35v4.16h5.02v1.85h-5.02v5.46h-2.16v-13.31h7.51Zm-9.92,0v1.84h-5.35v4.16h5.02v1.85h-5.02v5.46h-2.16v-13.31h7.51Zm-16.6,13.49c-2.01,0-3.55-.6-4.63-1.79-1.08-1.19-1.62-2.89-1.62-5.09s.54-3.88,1.63-5.06c1.08-1.18,2.63-1.77,4.64-1.77s3.51,.6,4.59,1.79c1.08,1.2,1.62,2.88,1.62,5.05s-.54,3.85-1.63,5.05c-1.08,1.2-2.62,1.8-4.6,1.8Zm-6.69,94.81c-.02-2.28,.25-4.55,.77-6.77l.21-.05c.29-.07,.51-.29,.6-.57,.03-.1,2.39-8.23,4.76-13-1.34,3.33-2.72,8.08-2.22,9.27,.5,1.2,2.67,1.81,3.45,1.86,1.93,.1,4.97-.55,7.65-1.14,.84-.18,1.64-.35,2.3-.48-.2,2.68-.23,5.38-.07,8.06,.17,2.86,.55,5.74,1.12,8.55l-17.18,2.89c-.89-2.79-1.36-5.69-1.38-8.62Zm3.58,19.28c-1.11-1.64-1.88-3.5-2.21-5.43-.28-1.62-.26-3.26,.05-4.88l17.14-2.88c-.49,2.12-.53,4.34-.09,6.46,.35,1.7,1,3.3,1.9,4.78l-16.77,1.96Zm17.15-2c-.92-1.48-1.59-3.09-1.94-4.81-.43-2.11-.39-4.34,.12-6.45l17.99-3.03,1.13,2.91c.03,.09,.13,.13,.22,.1,.09-.03,.13-.13,.1-.22l-1.18-3.04c-.03-.08-.11-.12-.19-.11l-18.08,3.04c-.57-2.8-.95-5.66-1.12-8.51-.16-2.69-.13-5.41,.07-8.1h.02c2.14-.37,5.01-.98,8.06-1.63,3.89-.82,7.91-1.67,11.05-2.17,1.35-.21,3.64-2.42,3.77-3.64,.1-.98-3.04-7.02-4.07-8.47-1.76-2.46-3.24-3.08-4.58-3.39-2.02-.47-5.71,.48-7.91,1.04l-.42,.11c-.11,.03-9.49,2.7-13.81,4.48,2.25-1.39,5.55-2.76,7.69-3.36,4.1-1.15,13.06-2.96,17.67-3.43,.35-.04,.73-.07,1.12-.11-.01,.03-.02,.05-.03,.08-.11,.31-.02,.66,.22,.88,1.79,1.66,3.34,3.55,4.59,5.63,1.09,1.79,1.94,3.72,2.56,5.71l-2.48,.22c-.07,0-.13,.05-.15,.12-.93,2.97-1.57,6.04-1.91,9.12-.6,5.39-.29,10.82,.9,16.19,.02,1.44,.09,3.01,.26,4.05,.13,.79,.53,2.26,1.16,4.36l-20.85,2.43Zm-2.95-29.67c.33-2.69,.77-5.39,1.33-8.03,.43-2.04,.94-4.1,1.51-6.11l2.62-.81c-.42,1.85-.8,3.73-1.11,5.59-.48,2.87-.83,5.8-1.04,8.7l-3.3,.66Zm20.23-6.84c0-.06,.02-.11,.06-.14,.04-.03,.1-.04,.15-.03l.92,.3,.21,.58c-.36,.55-.79,1.06-1.28,1.51-.26,.24-.53,.47-.82,.67-.06,.04-.15,.04-.2-.01l-.43-.41c-.06-.06-.07-.15-.01-.22l1.38-1.64s.04-.08,.04-.12l-.03-.5Zm-.77,0c-.22,1.09-1.15,2.36-2.72,2.71-.69,.16-1.64,.1-2.48,.06-.39-.02-.75-.04-1.06-.04-3.47,.04-5.53-1.12-5.67-3.17-.06-.9,.09-2.12,1.12-2.77,.96-.61,2.66-.79,4.2-.89,.14,0,.28-.02,.42-.03,.13,0,.26-.02,.39-.03,1.33-.09,2.49-.11,3.45,.48,1.33,.82,2.54,2.71,2.35,3.67Zm6.52,20.15c-.02,.09-.03,.18-.05,.26-.05,.24-.09,.48-.13,.73-.01,.08-.03,.17-.04,.25-.04,.26-.08,.53-.11,.81,0,.06-.01,.12-.02,.19-.03,.3-.06,.6-.08,.92,0,.04,0,.07,0,.11-.02,.33-.04,.66-.06,1.01v.03c-.04,.98-.05,2.01,0,3.1,.05,1.44,.16,2.78,.28,3.9-.15,.83-.27,1.67-.32,2.55-.01,.18-.02,.36-.03,.53l-.4,.05c-.54-1.75-1.2-3.99-1.38-5.04-.28-1.63-.29-4.98-.22-6.74,.15-3.55,1.28-9.83,3.21-12.04,1.62-1.84,4.98-2.37,6.99-2.69,.2-.03,.39-.06,.56-.09,.37-.06,.79-.14,1.23-.23,2.45-.49,5.79-1.16,8.38,.44,.98,.6,3.69,3.2,7.84,14.29,.17,.46,.01,.98-.39,1.26l-1.2,.85c-.44-.59-.9-1.17-1.41-1.7-.09-.1-.19-.18-.28-.27-.09-.17-.18-.35-.27-.52-.07-.14-.15-.28-.22-.43-.2-.39-.4-.78-.6-1.16-.96-1.85-1.86-3.6-2.57-4.69-.32-.49-.68-.92-1.07-1.28-2.76-2.52-7.16-2-9.68-1.7l-.33,.04c-4.29,.5-6.22,2.16-7.38,6.34-.08,.3-.16,.61-.23,.93Zm10.95,31.66c-5.32-1.62-9.37-7.76-9.84-14.93v-.16c-.05-.69-.06-1.39-.03-2.08,0-.18,.01-.35,.03-.52,.5-7.82,5.16-13.78,11.09-14.17,3.22-.22,6.59,1.27,9.25,4.08,2.79,2.94,4.48,6.92,4.77,11.2,.28,4.28-.87,8.44-3.26,11.73-2.27,3.13-5.41,5.04-8.63,5.26-1.12,.07-2.24-.06-3.33-.38h-.04Zm6.63,1.65c-.04,.05-.07,.11-.11,.16-.02,0-.04,0-.07,0-1.52,.1-3.03-.05-4.49-.44,.49,.04,.98,.04,1.47,0,3.5-.23,6.91-2.3,9.34-5.67,2.5-3.46,3.73-7.86,3.48-12.38-.15-2.65-.83-5.24-1.98-7.56,.48,.27,1.17,.42,1.79,.53,.09,.26,.34,.47,.57,.68,.24,.21,.49,.42,.55,.67,.05,.2-.04,.47-.14,.75-.11,.32-.23,.66-.17,.98,.06,.29,.28,.54,.49,.78,.2,.23,.41,.47,.44,.71,.03,.21-.11,.47-.25,.74-.16,.3-.32,.61-.3,.93,.01,.3,.2,.58,.37,.85,.17,.26,.34,.52,.33,.76,0,.22-.18,.45-.36,.7-.2,.27-.4,.55-.44,.87-.03,.3,.1,.61,.24,.9,.12,.28,.25,.57,.21,.8-.04,.21-.25,.42-.47,.63-.24,.23-.49,.48-.57,.78-.08,.29,0,.61,.09,.93,.08,.29,.16,.6,.08,.82-.11,.3-.39,.54-.69,.79-.28,.24-.57,.48-.72,.79-.16,.33-.17,.72-.18,1.1,0,.38-.02,.74-.17,.99-.17,.27-.49,.45-.84,.64-.32,.17-.65,.36-.87,.63-.22,.29-.31,.68-.4,1.04-.09,.37-.17,.72-.37,.94-.22,.23-.57,.34-.94,.46-.35,.11-.71,.22-.97,.45-.28,.25-.44,.61-.59,.96-.15,.34-.29,.67-.53,.84-.26,.19-.64,.24-1.02,.29-.36,.05-.74,.09-1.03,.27-.33,.2-.55,.54-.76,.86Zm3.78-.71c-1.09,.41-2.24,.68-3.43,.81,.18-.26,.36-.53,.59-.67,.23-.14,.55-.18,.89-.23,.42-.05,.85-.11,1.18-.35,.31-.23,.48-.61,.64-.98,.14-.32,.28-.64,.51-.84,.2-.18,.52-.28,.85-.38,.4-.12,.81-.25,1.09-.55,.26-.29,.36-.7,.45-1.09,.08-.33,.16-.68,.33-.91,.17-.22,.45-.37,.76-.54,.37-.2,.75-.41,.97-.76,.2-.33,.21-.75,.22-1.16,0-.34,.02-.7,.15-.96,.12-.25,.37-.45,.63-.68,.32-.27,.66-.55,.8-.94,.12-.32,.02-.68-.07-1.03-.07-.28-.15-.55-.09-.75,.06-.22,.27-.43,.48-.63,.25-.24,.51-.5,.57-.82,.06-.34-.09-.68-.23-1-.12-.27-.23-.52-.21-.72,.02-.22,.2-.46,.37-.7,.21-.28,.42-.57,.43-.89,.01-.34-.19-.66-.39-.96-.16-.24-.31-.47-.32-.68-.01-.23,.13-.49,.27-.75,.16-.31,.33-.62,.29-.94-.04-.35-.29-.62-.52-.9-.19-.22-.37-.42-.41-.62-.04-.23,.06-.52,.16-.8,.11-.32,.23-.65,.15-.95-.09-.35-.39-.61-.66-.84-.13-.11-.24-.22-.34-.33,.07,.01,.15,.03,.21,.04,.13,.03,.3,.05,.48,.08,.12,.15,.27,.28,.42,.41,.25,.22,.51,.44,.58,.7,.06,.21-.05,.49-.15,.79-.12,.34-.25,.69-.18,1.03,.06,.3,.29,.57,.51,.82,.21,.24,.44,.49,.46,.75,.03,.23-.11,.5-.26,.78-.16,.31-.33,.64-.32,.97,.01,.31,.2,.61,.39,.89,.17,.27,.36,.55,.35,.8,0,.23-.19,.48-.38,.74-.21,.28-.42,.57-.46,.9-.03,.31,.11,.63,.25,.94,.13,.29,.27,.6,.22,.84-.04,.23-.26,.44-.49,.67-.25,.24-.51,.5-.6,.82-.08,.3,0,.64,.09,.97,.08,.31,.17,.63,.08,.87-.12,.32-.41,.57-.73,.84-.29,.25-.6,.5-.75,.83-.17,.35-.18,.76-.19,1.16,0,.4-.02,.78-.18,1.04-.18,.29-.52,.47-.88,.67-.34,.18-.69,.37-.91,.66-.23,.31-.33,.71-.41,1.09-.09,.39-.17,.76-.39,.99-.23,.25-.6,.36-.99,.48-.37,.11-.75,.23-1.02,.47-.29,.26-.46,.64-.62,1.01-.08,.18-.16,.34-.24,.49Zm4.55-2.72c.07-.26,.15-.5,.29-.68,.18-.24,.5-.41,.84-.6,.12-.06,.24-.13,.35-.2-.47,.53-.96,1.02-1.48,1.48Zm2.08-3.39c-.01,.42-.02,.82-.19,1.1-.19,.31-.55,.5-.93,.71-.35,.19-.72,.39-.95,.69-.24,.32-.34,.73-.43,1.14,0,.04-.02,.08-.03,.12-1.11,.9-2.32,1.64-3.63,2.19,.03-.06,.06-.12,.09-.18,.15-.33,.3-.68,.53-.89,.22-.19,.54-.29,.89-.4,.42-.13,.85-.26,1.14-.58,.28-.3,.38-.73,.47-1.14,.08-.35,.16-.71,.35-.96,.17-.23,.48-.39,.8-.57,.39-.21,.79-.43,1.01-.79,.21-.35,.22-.79,.23-1.21,0-.36,.02-.73,.15-1.01,.12-.26,.39-.48,.66-.71,.34-.28,.69-.58,.83-.98,.12-.34,.02-.71-.07-1.07-.08-.3-.15-.58-.09-.79,.06-.23,.29-.45,.5-.66,.26-.26,.53-.52,.59-.85,.07-.35-.09-.7-.24-1.05-.12-.28-.24-.55-.22-.76,.03-.24,.21-.49,.39-.74,.22-.29,.44-.59,.45-.93,.01-.36-.2-.68-.4-1-.17-.26-.32-.5-.33-.72-.01-.24,.14-.52,.28-.8,.17-.32,.34-.65,.3-.98-.04-.36-.3-.65-.55-.93-.2-.23-.39-.44-.43-.66-.05-.25,.06-.55,.17-.85,.12-.33,.24-.68,.16-.99-.1-.37-.41-.64-.69-.88-.03-.02-.05-.04-.07-.06,.22,.03,.46,.07,.72,.1,.06,.06,.12,.11,.19,.16,.27,.23,.54,.47,.61,.74,.06,.22-.05,.52-.16,.84-.13,.35-.26,.72-.19,1.07,.06,.32,.3,.59,.53,.85,.23,.26,.46,.52,.49,.79,.03,.24-.12,.52-.28,.82-.17,.33-.35,.67-.33,1.02,.01,.33,.21,.64,.41,.93,.18,.28,.37,.58,.37,.84,0,.24-.2,.5-.4,.78-.22,.3-.44,.6-.48,.95-.04,.33,.11,.66,.26,.99,.14,.31,.28,.63,.23,.89-.05,.24-.28,.47-.52,.71-.26,.26-.53,.52-.62,.85-.09,.32,0,.67,.1,1.02,.09,.33,.18,.67,.09,.91-.12,.34-.44,.6-.77,.88-.31,.26-.63,.53-.79,.87-.17,.36-.19,.79-.2,1.21Zm.26,.87c.07-.27,.08-.57,.09-.86,0-.38,.02-.77,.16-1.07,.13-.27,.41-.51,.7-.75,.35-.3,.72-.6,.87-1.03,.13-.35,.02-.74-.08-1.12-.08-.31-.16-.61-.1-.84,.07-.24,.3-.48,.53-.7,.27-.27,.55-.54,.62-.89,.07-.37-.1-.74-.25-1.09-.13-.3-.26-.58-.23-.81,.03-.25,.22-.52,.42-.78,.23-.31,.46-.62,.47-.97,.01-.37-.21-.71-.42-1.04-.18-.27-.34-.53-.35-.76-.01-.26,.14-.55,.29-.84,.18-.33,.36-.68,.32-1.03-.04-.38-.31-.68-.58-.98-.21-.24-.41-.47-.45-.69-.05-.26,.06-.58,.17-.89,.12-.35,.25-.71,.17-1.04-.08-.3-.29-.53-.52-.74,.24,.03,.47,.06,.73,.09,.66,1.82,1.06,3.74,1.19,5.72,.33,4.99-1.13,9.63-3.75,13.11Zm53.02-33.17c-1.53,.05-3.39,.19-5.35,.35-2.35,.18-4.79,.37-6.67,.39-2.02,.02-3.92,.07-5.75,.11-4.46,.1-8.67,.2-13.19-.04-.03,0-.06-.01-.09-.02-.7-.09-2.94-.67-4.01-2.11-.35-.46-.89-.73-1.47-.71l-7.59,.22c-2.14,.14-3.78,2-3.63,4.15l.03,.47c.14,2.14,1.9,4.04,3.94,4.24,.06,0,.13,.01,.19,.02l3.51,.59c.41,.07,.83,.08,1.24,.05l3.53-.33c.95-.04,2.55-.9,3.67-1.6,.02,0,.12-.01,.27-.03-.53,.65-.89,1.55-1.28,2.47-.48,1.16-.98,2.37-1.76,3.04-1.33,1.13-4.03,2.67-5.4,2.87-1.23,.19-6.29-.25-10.43-.76-1.45-.18-2.6-.34-3.16-.45-.11-.02-.23-.04-.36-.06-.41-.07-1.41-.25-1.8-.48l2.73-3.17s.04-.07,.04-.11l.2-13.08c0-.1-.07-.17-.17-.18-.09,0-.17,.07-.18,.17l-.2,13.01-2.68,3.11c-.22-.25-.48-.62-.79-1.11l1.16-.81c.78-.55,1.08-1.55,.75-2.43-1.76-4.71-5.17-12.89-8.25-14.79-2.93-1.81-6.65-1.06-9.11-.57-.43,.09-.83,.17-1.19,.23l-.55,.09c-2.15,.34-5.74,.9-7.59,3.02-2.31,2.64-3.33,9.67-3.46,12.65-.01,.3-.02,.71-.03,1.15-.9-4.79-1.09-9.62-.56-14.41,.34-3.02,.96-6.02,1.86-8.94l2.44-.21s.01,.04,.02,.06c.12,.41,.53,.66,.94,.58,4.79-.83,9.65-1.62,14.45-2.32,2.29-.34,4.59-.66,6.89-.97,4.38,.6,4.8,1.71,4.8,1.73,.02,.08,.1,.14,.18,.13h.03c.09-.03,.15-.12,.13-.21-.02-.07-.2-.7-1.89-1.28-.58-.2-1.26-.37-2.04-.52,7.11-.94,14.26-1.76,21.35-2.42l19.56,1.59-13.55-.07h0c-.32,0-.61,.18-.75,.47l-5.09,10.44c-.15,.3-.1,.66,.12,.91l5.61,6.4c.17,.19,.41,.3,.66,.28l29.79-1.3c-.03,.16-.06,.32-.09,.5Zm2.98-4.82c.18,.11,.52,.42,.59,.54,.13,.3,.23,.73,.32,1.24-.23-.05-.45-.09-.61-.09-.78-.02-1.31,.05-1.67,.16l.22-2.44c.46,.23,.95,.47,1.16,.59Zm-3.75-8.6c2.35-.15,2.95,.84,3.29,2.87,.2,1.18-.1,2.73-.74,3.93-.08-.09-.16-.2-.26-.34-.02-.03-.04-.06-.06-.08-.02-.02-.03-.04-.04-.06-.02-.03-.04-.06-.06-.09l-.05-.08-2.6-6.06c.17-.04,.35-.07,.52-.08Zm-.58,2.25l1.33,3.04-34.28,.77,1.67-3.48,31.28-.33Z"/><path class="e" d="M136.22,122.28s.04,.06,.06,.09c.01,.02,.03,.04,.04,.06,.02,.03,.04,.06,.06,.08,.09,.13,.18,.24,.26,.34,.64-1.2,.94-2.75,.74-3.93-.34-2.02-.94-3.02-3.29-2.87-.18,.01-.35,.04-.52,.08l2.6,6.06,.05,.08Z"/><polygon class="e" points="100.56 122.12 134.84 121.35 133.51 118.31 102.23 118.64 100.56 122.12"/><path class="e" d="M88.8,123.32c2.15,.08,4.36,.16,6-.05,.49-.08,3.4-3.72,3.87-5.89,.14-.65,.05-1.08-.27-1.29-1.84-1.22-7.2-.96-10.9-.72-.31,.02-.61,.04-.89,.06-.25,.02-.5,.03-.72,.05-9.37,.62-10.68,1.98-10.63,2.74,.1,1.51,4.51,5.04,10.23,5.02,1.03,0,2.14,.04,3.32,.08Z"/><path class="g" d="M61.21,128.01l.33-.04c2.51-.3,6.92-.83,9.68,1.7,.39,.36,.75,.78,1.07,1.28,.7,1.1,1.61,2.84,2.57,4.69,.2,.39,.4,.78,.6,1.16,.07,.14,.15,.28,.22,.43,.09,.18,.18,.35,.27,.52,.09,.09,.19,.18,.28,.27,.51,.53,.97,1.11,1.41,1.7l1.2-.85c.4-.28,.56-.8,.39-1.26-4.15-11.09-6.86-13.69-7.84-14.29-2.59-1.6-5.94-.93-8.38-.44-.44,.09-.86,.17-1.23,.23-.17,.03-.36,.06-.56,.09-2.01,.32-5.38,.85-6.99,2.69-1.93,2.2-3.06,8.48-3.21,12.04-.07,1.76-.06,5.11,.22,6.74,.18,1.05,.84,3.29,1.38,5.04l.4-.05c0-.17,.01-.35,.03-.53,.06-.87,.17-1.72,.32-2.55-.12-1.12-.23-2.46-.28-3.9-.04-1.1-.03-2.13,0-3.1v-.03c.02-.34,.03-.68,.06-1.01,0-.04,0-.07,0-.11,.02-.31,.05-.62,.08-.92,0-.06,.01-.12,.02-.19,.03-.28,.07-.55,.11-.81,.01-.08,.02-.17,.04-.25,.04-.25,.09-.5,.13-.73,.02-.09,.03-.18,.05-.26,.07-.32,.14-.63,.23-.93,1.16-4.18,3.09-5.84,7.38-6.34Z"/><path class="h" d="M44.73,111.45c-.96-.59-2.12-.57-3.45-.48-.13,0-.26,.02-.39,.03-.14,0-.28,.02-.42,.03-1.54,.1-3.24,.29-4.2,.89-1.03,.65-1.18,1.86-1.12,2.77,.14,2.05,2.2,3.21,5.67,3.17,.3,0,.67,.02,1.06,.04,.84,.04,1.79,.1,2.48-.06,1.57-.35,2.5-1.62,2.72-2.71,.19-.96-1.01-2.85-2.35-3.67Z"/><path class="g" d="M46.47,117.37c-.05,.06-.05,.16,.01,.22l.43,.41c.06,.05,.14,.06,.2,.01,.28-.2,.56-.43,.82-.67,.48-.45,.91-.96,1.28-1.51l-.21-.58-.92-.3c-.05-.02-.11,0-.15,.03-.04,.03-.07,.09-.06,.14l.03,.5s-.01,.09-.04,.12l-1.38,1.64Z"/><path class="g" d="M31.97,112.6c.31-1.87,.69-3.75,1.11-5.59l-2.62,.81c-.57,2.01-1.08,4.07-1.51,6.11-.56,2.64-1.01,5.34-1.33,8.03l3.3-.66c.21-2.9,.56-5.83,1.04-8.7Z"/><path class="f" d="M67.92,167.33c3.22-.21,6.36-2.13,8.63-5.26,2.38-3.28,3.54-7.45,3.26-11.73-.28-4.28-1.97-8.25-4.77-11.2-2.66-2.8-6.03-4.29-9.25-4.08-5.93,.39-10.59,6.35-11.09,14.17-.01,.18-.02,.35-.03,.52-.03,.69-.02,1.39,.02,2.08v.16c.48,7.17,4.53,13.31,9.85,14.93h.04c1.09,.34,2.21,.47,3.33,.4Zm-7.87-8.63c-.96-1.41-1.66-3.11-2.03-4.9-.13-.65-.22-1.33-.27-2-.04-.67-.04-1.35,0-2.01,.12-1.83,.6-3.6,1.37-5.13,1.02-2.02,2.49-3.54,4.26-4.39,.86-.41,1.77-.65,2.71-.72,.94-.06,1.87,.06,2.78,.36,1.86,.61,3.52,1.92,4.79,3.79,.96,1.41,1.67,3.11,2.03,4.9,.13,.65,.22,1.32,.27,1.99,.04,.67,.04,1.35,0,2.01-.13,1.83-.6,3.6-1.37,5.13-1.02,2.02-2.49,3.54-4.25,4.39-.86,.41-1.77,.66-2.71,.72-.16,.01-.32,.02-.48,.02-.77,0-1.55-.12-2.3-.37-1.86-.61-3.52-1.92-4.8-3.79Z"/><path d="M67.62,162.85c.94-.06,1.85-.3,2.71-.72,1.77-.85,3.24-2.37,4.25-4.39,.77-1.52,1.24-3.3,1.37-5.13,.05-.67,.05-1.34,0-2.01-.04-.67-.13-1.34-.27-1.99-.36-1.79-1.06-3.49-2.03-4.9-1.28-1.87-2.93-3.18-4.79-3.79-.91-.3-1.84-.42-2.78-.36-.94,.06-1.85,.3-2.71,.72-1.77,.85-3.24,2.37-4.26,4.39-.77,1.53-1.24,3.3-1.37,5.13-.05,.67-.05,1.34,0,2.01,.04,.67,.13,1.34,.27,2,.36,1.8,1.07,3.49,2.03,4.9,1.28,1.87,2.93,3.18,4.8,3.79,.75,.25,1.53,.37,2.3,.37,.16,0,.32,0,.48-.02Zm-2.61-5.21c-.03-.49-.32-.92-.76-1.14-.44-.22-.95-.19-1.37,.09l-2.1,1.4c-.82-1.24-1.42-2.72-1.76-4.28l1.33-.89h0c.1-.07,.19-.15,.27-.24s.14-.19,.2-.29c.1-.21,.15-.45,.14-.7,0-.12-.03-.24-.07-.36-.11-.34-.36-.62-.69-.78l-1.44-.71c.12-1.59,.53-3.13,1.18-4.48l2.26,1.12c.44,.22,.95,.19,1.37-.09,.41-.28,.64-.73,.61-1.23l-.26-3.94c1.43-.66,3.03-.76,4.53-.3l.26,3.93c.03,.49,.32,.92,.76,1.14,.44,.22,.96,.19,1.37-.09l2.1-1.4c.82,1.24,1.43,2.72,1.76,4.28l-1.33,.89c-.41,.28-.64,.73-.6,1.23,.03,.49,.32,.92,.76,1.14l1.44,.71c-.12,1.59-.53,3.14-1.18,4.47l-2.26-1.11c-.44-.22-.96-.19-1.37,.09-.41,.28-.64,.73-.61,1.23l.26,3.93c-1.43,.66-3.02,.76-4.53,.3l-.26-3.94Z"/><path class="g" d="M69.79,161.28l-.26-3.93c-.03-.49,.19-.95,.61-1.23,.41-.28,.92-.31,1.37-.09l2.26,1.11c.65-1.34,1.06-2.88,1.18-4.47l-1.44-.71c-.44-.22-.73-.64-.76-1.14-.03-.49,.19-.95,.6-1.23l1.33-.89c-.33-1.56-.93-3.04-1.76-4.28l-2.1,1.4c-.41,.28-.92,.31-1.37,.09-.44-.22-.73-.64-.76-1.14l-.26-3.93c-1.5-.46-3.1-.36-4.53,.3l.26,3.94c.03,.49-.19,.95-.61,1.23-.41,.28-.92,.31-1.37,.09l-2.26-1.12c-.65,1.34-1.06,2.88-1.18,4.48l1.44,.71c.33,.16,.58,.44,.69,.78,.04,.11,.06,.23,.07,.36,.02,.25-.03,.49-.14,.7-.05,.11-.12,.2-.2,.29s-.17,.17-.27,.24h0l-1.33,.89c.33,1.56,.94,3.04,1.76,4.28l2.1-1.4c.41-.28,.92-.31,1.37-.09,.44,.22,.73,.64,.76,1.14l.26,3.94c1.5,.46,3.1,.36,4.53-.3Zm-5.15-9.93c-.08-1.28,.84-2.38,2.06-2.46,1.22-.08,2.28,.89,2.37,2.17,.08,1.28-.84,2.38-2.06,2.46-1.22,.08-2.28-.89-2.37-2.17Z"/><path d="M69.07,151.06c-.08-1.28-1.14-2.25-2.37-2.17-1.22,.08-2.14,1.18-2.06,2.46,.08,1.28,1.14,2.25,2.37,2.17,1.22-.08,2.14-1.18,2.06-2.46Z"/><path class="f" d="M76.84,165.92c.39-.12,.76-.24,.99-.48,.21-.23,.3-.6,.39-.99,.09-.39,.18-.79,.41-1.09,.22-.29,.57-.48,.91-.66,.36-.2,.7-.38,.88-.67,.16-.27,.17-.64,.18-1.04,.01-.4,.02-.81,.19-1.16,.16-.33,.46-.58,.75-.83,.32-.27,.61-.52,.73-.84,.08-.24,0-.56-.08-.87-.09-.33-.18-.67-.09-.97,.09-.32,.35-.57,.6-.82,.23-.23,.45-.44,.49-.67,.05-.24-.09-.55-.22-.84-.14-.31-.28-.63-.25-.94,.04-.33,.25-.62,.46-.9,.19-.26,.38-.51,.38-.74,0-.25-.17-.53-.35-.8-.18-.28-.38-.58-.39-.89-.02-.34,.15-.66,.32-.97,.15-.29,.29-.55,.26-.78-.03-.25-.25-.5-.46-.75-.22-.25-.45-.52-.51-.82-.07-.34,.06-.69,.18-1.03,.11-.3,.21-.58,.15-.79-.07-.26-.33-.49-.58-.7-.15-.13-.3-.27-.42-.41-.19-.03-.35-.06-.48-.08-.06-.01-.14-.03-.21-.04,.09,.11,.2,.22,.34,.33,.27,.23,.57,.49,.66,.84,.08,.3-.04,.63-.15,.95-.1,.28-.2,.57-.16,.8,.04,.2,.22,.4,.41,.62,.24,.27,.48,.55,.52,.9,.04,.32-.13,.63-.29,.94-.14,.26-.28,.52-.27,.75,0,.21,.16,.44,.32,.68,.19,.3,.4,.61,.39,.96,0,.32-.22,.61-.43,.89-.17,.23-.35,.47-.37,.7-.02,.21,.09,.46,.21,.72,.15,.33,.3,.67,.23,1-.06,.32-.32,.57-.57,.82-.21,.2-.42,.41-.48,.63-.06,.2,.02,.47,.09,.75,.09,.35,.19,.7,.07,1.03-.14,.39-.47,.67-.8,.94-.26,.22-.51,.43-.63,.68-.13,.27-.14,.62-.15,.96-.01,.41-.02,.83-.22,1.16-.21,.35-.6,.56-.97,.76-.3,.16-.59,.32-.76,.54-.18,.23-.26,.58-.33,.91-.09,.4-.19,.81-.45,1.09-.28,.3-.69,.43-1.09,.55-.33,.1-.64,.2-.85,.38-.22,.2-.37,.53-.51,.84-.16,.37-.33,.75-.64,.98-.33,.25-.76,.3-1.18,.35-.34,.04-.67,.08-.89,.23-.24,.15-.42,.41-.59,.67,1.19-.12,2.34-.4,3.43-.81,.09-.15,.16-.31,.24-.49,.16-.37,.33-.75,.62-1.01,.27-.24,.65-.36,1.02-.47Z"/><path class="f" d="M72.98,167.46c.37-.05,.76-.09,1.02-.29,.24-.17,.38-.5,.53-.84,.15-.35,.31-.71,.59-.96,.26-.23,.62-.34,.97-.45,.37-.12,.73-.23,.94-.46,.2-.22,.28-.57,.37-.94,.08-.37,.17-.75,.4-1.04,.21-.28,.54-.46,.87-.63,.34-.19,.67-.36,.84-.64,.15-.25,.16-.61,.17-.99,0-.38,.02-.77,.18-1.1,.15-.31,.44-.56,.72-.79,.3-.25,.58-.49,.69-.79,.08-.22,0-.53-.08-.82-.08-.31-.17-.64-.09-.93,.08-.31,.33-.55,.57-.78,.22-.22,.43-.42,.47-.63,.04-.23-.08-.52-.21-.8-.13-.3-.27-.6-.24-.9,.03-.32,.24-.6,.44-.87,.18-.25,.36-.48,.36-.7,0-.24-.16-.5-.33-.76-.18-.27-.36-.55-.37-.85-.01-.32,.15-.63,.3-.93,.14-.27,.28-.53,.25-.74-.03-.24-.24-.48-.44-.71-.21-.24-.43-.49-.49-.78-.06-.32,.06-.66,.17-.98,.1-.28,.2-.55,.14-.75-.07-.25-.31-.46-.55-.67-.24-.2-.48-.41-.57-.68-.61-.11-1.31-.26-1.79-.53,1.15,2.32,1.83,4.91,1.98,7.56,.25,4.52-.99,8.92-3.48,12.38-2.43,3.37-5.84,5.43-9.34,5.67-.49,.03-.98,.03-1.47,0,1.47,.39,2.97,.54,4.49,.44,.02,0,.04,0,.07,0,.04-.05,.07-.11,.11-.16,.21-.33,.44-.66,.76-.86,.29-.18,.67-.23,1.03-.27Z"/><path class="f" d="M79.79,164.48c-.14,.18-.22,.42-.29,.68,.52-.46,1.01-.95,1.48-1.48-.12,.07-.24,.14-.35,.2-.34,.18-.65,.35-.84,.6Z"/><path class="f" d="M84.4,143.82c-.26-.03-.49-.06-.73-.09,.23,.21,.44,.44,.52,.74,.09,.33-.04,.69-.17,1.04-.11,.31-.22,.63-.17,.89,.04,.22,.24,.45,.45,.69,.26,.3,.53,.6,.58,.98,.04,.35-.14,.69-.32,1.03-.15,.29-.31,.58-.29,.84,.01,.23,.18,.49,.35,.76,.21,.33,.43,.67,.42,1.04-.01,.35-.24,.67-.47,.97-.19,.26-.39,.53-.42,.78-.03,.23,.1,.51,.23,.81,.16,.36,.32,.73,.25,1.09-.07,.35-.35,.62-.62,.89-.23,.22-.47,.46-.53,.7-.06,.23,.02,.52,.1,.84,.1,.38,.2,.77,.08,1.12-.15,.42-.52,.73-.87,1.03-.29,.25-.57,.48-.7,.75-.14,.3-.15,.69-.16,1.07,0,.29-.02,.59-.09,.86,2.62-3.48,4.08-8.12,3.75-13.11-.13-1.98-.53-3.9-1.19-5.72Z"/><path class="f" d="M82.57,159.7c.33-.28,.65-.54,.77-.88,.09-.25,0-.59-.09-.91-.09-.34-.19-.7-.1-1.02,.09-.33,.36-.6,.62-.85,.24-.24,.48-.47,.52-.71,.05-.26-.09-.58-.23-.89-.14-.33-.29-.66-.26-.99,.04-.35,.26-.65,.48-.95,.2-.27,.4-.53,.4-.78,0-.27-.18-.56-.37-.84-.19-.3-.39-.61-.41-.93-.02-.35,.16-.69,.33-1.02,.16-.3,.31-.58,.28-.82-.03-.27-.27-.53-.49-.79-.23-.26-.47-.54-.53-.85-.07-.35,.06-.72,.19-1.07,.11-.31,.22-.61,.16-.84-.07-.28-.35-.51-.61-.74-.06-.05-.12-.11-.19-.16-.26-.03-.5-.07-.72-.1,.02,.02,.05,.04,.07,.06,.28,.24,.6,.51,.69,.88,.08,.31-.04,.66-.16,.99-.1,.29-.21,.6-.17,.85,.04,.21,.23,.43,.43,.66,.25,.28,.51,.58,.55,.93,.04,.33-.13,.66-.3,.98-.14,.27-.29,.55-.28,.8,0,.22,.17,.46,.33,.72,.2,.31,.41,.64,.4,1-.01,.34-.23,.64-.45,.93-.18,.25-.37,.5-.39,.74-.02,.22,.09,.48,.22,.76,.15,.34,.31,.7,.24,1.05-.06,.33-.33,.6-.59,.85-.22,.21-.44,.43-.5,.66-.06,.21,.02,.49,.09,.79,.1,.36,.2,.74,.07,1.07-.15,.41-.5,.7-.83,.98-.28,.23-.54,.45-.66,.71-.13,.28-.14,.65-.15,1.01-.01,.43-.02,.87-.23,1.21-.22,.37-.62,.58-1.01,.79-.32,.17-.62,.34-.8,.57-.19,.25-.27,.61-.35,.96-.1,.42-.2,.85-.47,1.14-.29,.31-.73,.45-1.14,.58-.35,.11-.68,.21-.89,.4-.23,.21-.39,.55-.53,.89-.03,.06-.06,.12-.09,.18,1.31-.54,2.52-1.29,3.63-2.19,0-.04,.02-.08,.03-.12,.09-.4,.19-.82,.43-1.14,.23-.3,.59-.5,.95-.69,.38-.21,.74-.4,.93-.71,.17-.28,.18-.68,.19-1.1,.01-.42,.02-.85,.2-1.21,.16-.34,.48-.61,.79-.87Z"/><path class="f" d="M12.68,155.16c-.03-.13-.06-.27-.09-.43l-1.12,.13c-.06,0-.11-.01-.15-.05l-.03-.03c-.03,.13-.05,.25-.07,.37,.59,.92,1.21,1.82,1.85,2.71-.09-.91-.21-1.82-.39-2.68v-.02Z"/><path class="f" d="M11,154.46l-.6-.64c.18,.3,.36,.6,.55,.9v-.04c.02-.07,.04-.15,.05-.22Z"/><path d="M85.49,124.24c1,0,2.11,.04,3.28,.08,1.14,.04,2.29,.09,3.38,.09,1.01,0,1.96-.04,2.79-.15,1.2-.16,4.18-4.36,4.7-6.61,.31-1.35-.16-2.03-.63-2.36l2.65-3.87,3.68-.24c.1,0,.17-.09,.16-.18,0-.1-.09-.17-.18-.16l-3.76,.25c-.05,0-.1,.03-.13,.07l-2.71,3.96c-2.24-1.23-7.22-1.01-12.16-.68l-.72,.05c-3.24,.21-5.82,.54-7.66,.96-1.73,.4-4.02,1.13-3.91,2.84,.1,1.44,1.9,2.97,3.57,3.92,1.33,.76,4.09,2.04,7.6,2.04h.06Zm-10.23-6.02c-.05-.76,1.26-2.12,10.63-2.74,.23-.01,.47-.03,.72-.05,.28-.02,.58-.04,.89-.06,3.7-.24,9.06-.5,10.9,.72,.32,.21,.41,.64,.27,1.29-.47,2.17-3.38,5.81-3.87,5.89-1.63,.22-3.85,.13-6,.05-1.18-.04-2.29-.09-3.32-.08-5.72,.02-10.13-3.51-10.23-5.02Z"/><path d="M71.73,117.55l-15.26,2.06c-.11,0-.82,.03-1.71,.47-.87,.43-2.08,1.36-2.91,3.33-.04,.09,0,.19,.09,.23,.03,.01,.05,.01,.08,.01,.06,0,.12-.04,.15-.11,.79-1.87,1.92-2.74,2.73-3.15,.88-.44,1.58-.44,1.59-.44h.02l15.27-2.06c.09-.01,.16-.1,.15-.19-.01-.09-.1-.16-.19-.15Z"/><path d="M98.18,124.27l-10.8,.98c-1.37,.12-2.46,1.16-2.65,2.52l-.39,2.76c-.01,.09,.05,.18,.15,.2,.01,0,.02,0,.04,0,.08,0,.15-.07,.16-.15l.39-2.76c.17-1.2,1.13-2.12,2.34-2.23l10.8-.98c.1,0,.17-.09,.16-.19s-.09-.17-.19-.16Z"/><path d="M34.32,126.41l-5.16,.57c-.44,.05-.76,.45-.71,.89,.05,.43,.43,.74,.85,.72h.04l5.16-.57c.44-.05,.76-.45,.71-.89-.05-.44-.45-.76-.89-.71Z"/><path d="M12.66,131.54s.04,0,.06,0l2.86-.42c.44-.06,.75-.47,.68-.91-.06-.44-.47-.75-.91-.68l-2.86,.42c-.44,.06-.75,.47-.68,.91,.06,.42,.43,.72,.85,.69Z"/><path d="M.29,129.66c1.61,16.38,9.87,31.5,23.01,41.7l39.58,30.75,40.58-30.75,9.36-8.93c6.74-8.2,11.26-18.05,13.04-28.71l-2.73-.46c-1.71,10.26-6.09,19.74-12.62,27.6-2.7,3.26-5.76,6.24-9.16,8.89l-38.42,29.84-38.42-29.84c-3.6-2.79-6.82-6-9.64-9.51-.63-.78-1.23-1.58-1.82-2.39-.64-.89-1.26-1.79-1.85-2.71-.09-.14-.19-.28-.28-.42-.19-.3-.37-.6-.55-.9-.63-1.05-1.23-2.12-1.79-3.2-2.1-4.03-3.75-8.3-4.87-12.72-.17-.65-.31-1.31-.45-1.97-.45-2.06-.79-4.15-1.01-6.26-.01-.11-.03-.21-.04-.32-.05-.46-.07-.92-.1-1.38-.09-1.24-.18-2.47-.18-3.72V15.3H123.93V111.9h2.77v-6.76c0-.69-.5-48.72-.77-75.09-.1-10-.18-16.89-.18-16.89H0V123.77c0,1.97,.1,3.94,.29,5.89Z"/><polygon points="4.15 8.43 5.44 8.43 5.44 1.62 7.77 1.62 7.77 .51 1.82 .51 1.82 1.62 4.15 1.62 4.15 8.43"/><path d="M10.3,8.54c.46,0,.83-.07,1.13-.2,.29-.13,.58-.38,.87-.74h.04l.25,.83h.91V4.39c0-.71-.19-1.23-.58-1.57s-.96-.5-1.73-.5c-.34,0-.71,.04-1.09,.13-.39,.09-.74,.22-1.07,.39l.41,.91c.26-.12,.53-.23,.81-.32,.28-.09,.58-.14,.88-.14,.38,0,.65,.1,.83,.28s.27,.48,.27,.86v.32l-1.03,.03c-.94,.03-1.64,.2-2.1,.51-.46,.31-.69,.78-.69,1.4,0,.58,.16,1.03,.5,1.35,.33,.32,.79,.48,1.38,.48Zm-.14-2.64c.27-.18,.71-.28,1.31-.3l.77-.03v.52c0,.47-.14,.83-.42,1.09s-.65,.39-1.11,.39c-.32,0-.56-.07-.71-.22-.16-.15-.24-.35-.24-.62,0-.37,.14-.64,.41-.82Z"/><path d="M17.7,8.54c.37,0,.68-.03,.94-.09,.26-.06,.5-.15,.73-.29v-1.11c-.51,.28-1.04,.42-1.61,.42-.5,0-.88-.17-1.13-.51-.26-.34-.39-.84-.39-1.51,0-1.38,.52-2.06,1.55-2.06,.35,0,.79,.1,1.33,.31l.38-1.02c-.51-.23-1.07-.35-1.71-.35-.93,0-1.64,.27-2.14,.81-.49,.54-.74,1.32-.74,2.32s.24,1.75,.71,2.28c.47,.53,1.16,.79,2.07,.79Z"/><path d="M21.76,8.16c.43,.25,.92,.38,1.48,.38,.9,0,1.59-.27,2.1-.82,.5-.55,.75-1.31,.75-2.29s-.25-1.7-.76-2.26c-.51-.56-1.19-.84-2.06-.84s-1.61,.27-2.11,.82c-.5,.55-.75,1.3-.75,2.27,0,.62,.12,1.17,.35,1.65,.23,.47,.56,.84,.99,1.09Zm.33-4.26c.24-.35,.63-.53,1.16-.53,1.02,0,1.53,.68,1.53,2.05s-.51,2.07-1.52,2.07-1.53-.69-1.53-2.07c0-.66,.12-1.17,.36-1.52Z"/><path d="M28.82,5.44c0-.74,.11-1.28,.34-1.6,.23-.32,.59-.48,1.08-.48,.37,0,.64,.11,.81,.34,.17,.23,.26,.57,.26,1.03v3.69h1.28v-3.17c0-.64,.11-1.11,.34-1.42,.23-.31,.59-.46,1.09-.46,.37,0,.64,.11,.82,.34,.18,.23,.26,.57,.26,1.03v3.69h1.27v-3.91c0-.74-.16-1.29-.49-1.65-.33-.36-.85-.54-1.56-.54-.42,0-.78,.08-1.1,.25-.32,.17-.57,.4-.75,.69h-.09c-.3-.63-.91-.94-1.83-.94-.38,0-.73,.08-1.04,.23-.32,.16-.56,.38-.72,.66h-.07l-.18-.79h-1v5.99h1.27v-2.98Z"/><path d="M39.61,8.54c.46,0,.83-.07,1.13-.2,.29-.13,.58-.38,.87-.74h.04l.25,.83h.91V4.39c0-.71-.19-1.23-.58-1.57-.39-.33-.96-.5-1.73-.5-.34,0-.71,.04-1.09,.13-.39,.09-.74,.22-1.07,.39l.41,.91c.26-.12,.53-.23,.81-.32,.28-.09,.58-.14,.88-.14,.38,0,.65,.1,.83,.28,.18,.19,.27,.48,.27,.86v.32l-1.03,.03c-.94,.03-1.64,.2-2.1,.51-.46,.31-.69,.78-.69,1.4,0,.58,.17,1.03,.5,1.35,.33,.32,.79,.48,1.38,.48Zm-.14-2.64c.27-.18,.71-.28,1.31-.3l.77-.03v.52c0,.47-.14,.83-.42,1.09-.28,.26-.65,.39-1.11,.39-.32,0-.56-.07-.71-.22-.16-.15-.24-.35-.24-.62,0-.37,.14-.64,.41-.82Z"/><path d="M48.65,5.91c.43,0,.77-.13,1.01-.4,.24-.27,.36-.64,.36-1.13s-.12-.87-.36-1.13c-.24-.26-.58-.39-1.02-.39s-.78,.13-1.02,.39c-.24,.26-.36,.64-.36,1.14s.12,.88,.36,1.14c.24,.26,.58,.39,1.01,.39Z"/><path d="M55.34,10c.38-.43,.58-1.05,.58-1.86V.51h-1.3v7.67c0,.9-.35,1.34-1.06,1.34-.22,0-.49-.04-.79-.11v1.09c.24,.09,.53,.14,.89,.14,.74,0,1.3-.21,1.69-.64Z"/><path d="M60.45,8.54c.41,0,.77-.03,1.09-.09,.32-.06,.63-.17,.94-.31v-1.03c-.35,.16-.68,.27-.98,.33-.31,.07-.63,.1-.99,.1-.54,0-.96-.16-1.25-.47-.3-.31-.45-.76-.47-1.34h3.99v-.69c0-.84-.23-1.5-.69-1.98-.46-.48-1.08-.72-1.87-.72-.85,0-1.52,.28-2.01,.84-.49,.56-.73,1.33-.73,2.31s.26,1.7,.79,2.25c.53,.54,1.25,.82,2.19,.82Zm-1.21-4.86c.24-.26,.57-.38,.97-.38s.72,.13,.95,.38c.23,.25,.35,.63,.36,1.12h-2.72c.05-.49,.19-.86,.44-1.12Z"/><path d="M66.85,8.54c.41,0,.77-.03,1.09-.09,.32-.06,.63-.17,.94-.31v-1.03c-.35,.16-.68,.27-.98,.33-.31,.07-.63,.1-.99,.1-.54,0-.96-.16-1.25-.47-.3-.31-.45-.76-.47-1.34h3.99v-.69c0-.84-.23-1.5-.69-1.98-.46-.48-1.08-.72-1.87-.72-.85,0-1.52,.28-2.01,.84-.49,.56-.73,1.33-.73,2.31s.26,1.7,.79,2.25c.53,.54,1.25,.82,2.19,.82Zm-1.21-4.86c.24-.26,.57-.38,.97-.38s.72,.13,.95,.38c.23,.25,.35,.63,.36,1.12h-2.72c.05-.49,.19-.86,.44-1.12Z"/><path d="M71.89,8.64c0-.11-.03-.42-.08-.92h.08c.42,.55,1.01,.82,1.77,.82s1.33-.27,1.76-.82c.42-.55,.64-1.31,.64-2.29s-.21-1.74-.63-2.28c-.42-.54-1-.81-1.75-.81-.79,0-1.39,.3-1.79,.91h-.07c-.09-.42-.15-.69-.18-.8h-1.03V11.09h1.27v-2.45Zm0-3.41c0-.65,.12-1.12,.35-1.42,.23-.3,.6-.44,1.11-.44,.46,0,.81,.17,1.04,.52,.24,.35,.35,.85,.35,1.52s-.12,1.18-.36,1.54c-.24,.36-.58,.54-1.02,.54-.52,0-.9-.16-1.13-.49-.23-.33-.35-.85-.35-1.58v-.19Z"/><path d="M81.59,5.91c.43,0,.77-.13,1.01-.4,.24-.27,.36-.64,.36-1.13s-.12-.87-.36-1.13c-.24-.26-.58-.39-1.02-.39s-.78,.13-1.02,.39c-.24,.26-.36,.64-.36,1.14s.12,.88,.36,1.14c.24,.26,.58,.39,1.01,.39Z"/><path d="M91.4,7.94c.51-.4,.76-.95,.76-1.66,0-.36-.06-.67-.19-.93s-.32-.5-.6-.71c-.27-.21-.7-.44-1.28-.68-.52-.21-.87-.38-1.07-.51-.2-.13-.34-.27-.43-.41-.09-.15-.13-.32-.13-.53,0-.3,.11-.54,.33-.72,.22-.18,.53-.27,.95-.27,.55,0,1.18,.15,1.88,.44l.41-1.06c-.75-.33-1.51-.5-2.26-.5s-1.42,.19-1.89,.57-.7,.9-.7,1.56c0,.53,.15,.98,.44,1.35,.3,.38,.81,.71,1.53,1,.7,.28,1.16,.53,1.39,.73,.22,.21,.34,.46,.34,.75,0,.33-.12,.59-.37,.79-.24,.2-.62,.29-1.13,.29-.35,0-.73-.05-1.13-.15-.41-.1-.79-.23-1.15-.4v1.22c.57,.28,1.3,.42,2.2,.42s1.6-.2,2.11-.6Z"/><path d="M95.67,8.54c.42,0,.79-.08,1.12-.24,.33-.16,.58-.38,.76-.66h.07l.18,.79h1V2.44h-1.28v2.98c0,.75-.13,1.29-.38,1.61-.25,.32-.64,.48-1.18,.48-.4,0-.7-.12-.88-.34s-.28-.57-.28-1.03V2.44h-1.28v3.92c0,.73,.18,1.28,.54,1.64,.36,.36,.9,.54,1.62,.54Z"/><path d="M101.79,7.72h.09c.42,.55,1.01,.82,1.77,.82s1.34-.27,1.76-.82c.42-.55,.63-1.31,.63-2.29s-.21-1.74-.63-2.28c-.42-.54-1-.81-1.75-.81-.79,0-1.38,.3-1.79,.89h-.05c0-.08,.02-.27,.03-.56,.01-.29,.02-.51,.02-.66V0h-1.27V8.43h.95l.23-.71Zm.09-2.38c0-.71,.12-1.21,.35-1.51,.23-.3,.6-.45,1.11-.45,.93,0,1.4,.68,1.4,2.04,0,.68-.12,1.19-.35,1.55-.23,.36-.58,.54-1.03,.54-.52,0-.9-.16-1.13-.49-.23-.33-.35-.85-.35-1.58v-.09Z"/><path d="M108.97,8.54c.46,0,.83-.07,1.13-.2,.29-.13,.58-.38,.87-.74h.04l.25,.83h.91V4.39c0-.71-.19-1.23-.58-1.57-.39-.33-.96-.5-1.73-.5-.34,0-.71,.04-1.09,.13-.39,.09-.74,.22-1.07,.39l.41,.91c.26-.12,.53-.23,.81-.32,.28-.09,.58-.14,.88-.14,.38,0,.65,.1,.83,.28,.18,.19,.27,.48,.27,.86v.32l-1.03,.03c-.94,.03-1.64,.2-2.1,.51-.46,.31-.69,.78-.69,1.4,0,.58,.17,1.03,.5,1.35,.33,.32,.79,.48,1.38,.48Zm-.14-2.64c.27-.18,.71-.28,1.31-.3l.77-.03v.52c0,.47-.14,.83-.42,1.09-.28,.26-.65,.39-1.11,.39-.32,0-.56-.07-.71-.22-.16-.15-.24-.35-.24-.62,0-.37,.14-.64,.41-.82Z"/><path d="M115.22,5.3c0-.53,.16-.96,.47-1.29,.32-.33,.73-.5,1.24-.5,.2,0,.38,.02,.56,.07l.12-1.19c-.17-.04-.38-.05-.63-.05-.37,0-.71,.1-1.03,.31-.32,.21-.58,.49-.78,.85h-.07l-.17-1.06h-1v5.99h1.27v-3.13Z"/><path d="M120.84,8.54c.42,0,.79-.08,1.12-.24,.33-.16,.58-.38,.76-.66h.07l.18,.79h1V2.44h-1.28v2.98c0,.75-.13,1.29-.38,1.61-.25,.32-.64,.48-1.18,.48-.4,0-.7-.12-.88-.34-.19-.23-.28-.57-.28-1.03V2.44h-1.28v3.92c0,.73,.18,1.28,.54,1.64,.36,.36,.9,.54,1.62,.54Z"/></g></g></g></svg>