<?xml version="1.0" encoding="UTF-8"?><svg xmlns="http://www.w3.org/2000/svg" viewBox="0 0 85 85"><defs><style>.d{fill:#fff;}.e{fill:#55acee;}</style></defs><g id="a"/><g id="b"><g id="c"><g><circle class="e" cx="42.5" cy="42.5" r="42.5"/><path class="d" d="M66.3,27.74c-1.78,.79-3.67,1.31-5.61,1.54,2.04-1.22,3.57-3.14,4.29-5.41-1.92,1.14-4.01,1.94-6.2,2.37-3.69-3.93-9.88-4.12-13.81-.43-1.96,1.84-3.08,4.42-3.08,7.11,0,.75,.09,1.5,.25,2.23-7.85-.38-15.16-4.07-20.14-10.15-2.58,4.45-1.26,10.13,3,13-1.55-.05-3.07-.47-4.43-1.22v.13c0,4.65,3.28,8.65,7.84,9.57-1.44,.39-2.95,.44-4.41,.17,1.28,3.98,4.94,6.71,9.12,6.78-3.46,2.71-7.73,4.17-12.12,4.16-.78,0-1.56-.05-2.33-.14,4.47,2.88,9.68,4.41,15,4.39,18,0,27.79-14.88,27.79-27.78v-1.27c1.9-1.38,3.54-3.09,4.84-5.05Z"/></g></g></g></svg>